<?xml version="1.0" encoding="UTF-8"?>
<svg width="408px" height="612px" viewBox="0 0 408 612" version="1.1" xmlns="http://www.w3.org/2000/svg" xmlns:xlink="http://www.w3.org/1999/xlink">
    <!-- Generator: Sketch 59.1 (86144) - https://sketch.com -->
    <title>a-back</title>
    <desc>Created with Sketch.</desc>
    <g id="a-back" stroke="none" stroke-width="1" fill="none" fill-rule="evenodd">
        <g id="a-back-removebg-preview" transform="translate(80.000000, 4.000000)" stroke="#000000">
            <path d="M68.0303966,518.309273 C62.5791795,515.718858 62.1537186,511.733603 62.4861099,507.389676 C63.4168055,495.194796 60.1460753,483.385158 59.1621971,471.389542 C56.2770407,436.186459 48.7782933,401.594448 45.8665456,366.431217 C45.0289195,356.215681 43.2473022,346.07985 43.3137805,335.758041 C43.3536675,329.474622 41.5454589,323.217773 40.0031633,317.253175 C36.7457287,304.686338 38.0354069,292.225775 38.7001894,279.685507 C39.5245198,263.97032 40.6014676,248.2817 41.5055719,232.579797 C42.7154762,211.40481 45.2150587,190.362666 47.7678237,169.320521 C50.3072932,148.318229 56.037719,128.086419 62.2600839,107.987451 C65.3845619,97.9047571 66.3551445,87.5032424 67.0864053,77.1548644 C68.0968748,62.8478001 67.9107357,48.4743149 68.3494922,34.127398 C68.4957444,29.3052399 69.4131443,24.7089128 72.1653442,20.4579745 C74.6782223,16.5657091 73.468318,11.7435509 74.3724223,7.38633911 C75.8615353,0.199596503 75.6488049,0.0667546801 82.8284567,0.0800388624 C124.776237,0.0800388624 166.710722,0.173028138 208.658502,0 C213.830511,-0.0262345958 216.383276,1.52801473 217.912276,6.57600399 C220.996867,16.7915402 226.793771,26.0771836 228.987553,36.5982559 C230.569736,44.1569556 231.56691,51.8750655 234.412179,59.0883765 C241.791266,77.8323577 245.234839,97.5328 247.947152,117.286379 C250.007978,132.244368 248.904439,147.348483 245.846439,162.226768 C239.437935,193.431312 236.286866,225.074234 232.776814,256.677304 C231.394066,269.177719 228.947666,281.545293 228.641866,294.17855 C228.309475,308.140226 229.359832,321.87607 232.191805,335.611915 C237.682909,362.299837 234.159562,388.655654 228.322771,414.918483 C221.103232,447.438161 210.333754,479.054515 204.164572,511.839877 C203.433311,515.718858 202.09045,519.34544 203.00785,523.47682 C203.592859,526.173509 203.061033,529.135882 200.016329,530.756552 C198.341077,531.646592 198.008685,533.293831 198.141642,535.047343 C198.952677,545.5817 196.918442,556.155909 198.926085,566.703549 C199.803598,571.299876 198.992564,575.829783 196.147294,579.974447 C193.966807,583.162651 194.817729,587.108053 195.45592,590.641646 C196.306842,595.370815 194.299199,597.416579 189.938225,598.187061 C185.165086,599.023965 180.44513,599.276364 175.605513,598.652008 C169.489513,597.868241 165.899687,594.46749 164.889218,588.62245 C164.197844,584.597343 162.176905,583.09623 158.241392,582.857115 C153.454957,582.578147 148.655227,582.033496 143.961862,581.077035 C137.274149,579.722048 135.878106,577.50359 135.917993,570.728657 C135.944584,564.83048 136.343454,559.104997 140.172601,554.242986 C141.289436,552.821579 142.273314,550.775815 143.762427,550.244448 C151.58027,547.428201 153.335296,540.321163 156.087496,533.825198 C157.882409,529.600828 158.055253,524.021472 164.450461,523.370547 C164.9424,523.31741 165.593887,522.161686 165.713548,521.44434 C167.043113,513.261284 169.396443,505.397048 172.720356,497.798496 C173.159113,496.802182 173.345252,495.447196 173.066043,494.411029 C168.70507,478.230895 170.938739,462.090614 173.903669,446.123027 C176.363365,432.852129 176.057565,419.408536 177.786,406.11107 C178.849652,397.901445 179.487843,389.638684 180.35206,381.402491 C181.548669,370.071083 180.378652,358.75296 178.238052,347.780226 C174.249356,327.282732 171.151469,306.678966 168.053583,286.048631 C162.854983,251.323778 157.403766,216.638778 152.19187,181.913926 C151.36754,176.414274 151.221288,170.821634 150.649575,163.927143 C146.368375,174.448215 142.579114,183.733859 138.803149,193.046071 C129.961541,214.845414 119.604229,236.060253 112.38469,258.483952 C106.800516,275.806526 101.216343,293.182236 98.3178906,311.262009 C96.0044473,325.648778 98.7566471,339.66359 101.083386,353.704971 C104.021725,371.545628 106.654264,389.319864 104.752986,407.559046 C103.848882,416.246901 105.178447,425.160587 104.500369,433.888295 C103.051143,452.751834 104.965716,471.57552 104.699803,490.412491 C104.606734,496.695909 104.274343,503.218442 106.295282,509.462008 C106.787221,510.963121 106.747334,512.83619 106.36176,514.39044 C105.244925,518.893777 105.510838,522.600064 110.483412,524.61926 C111.799681,525.150627 112.464464,526.439193 112.424577,527.8606 C112.105481,540.321163 117.317377,551.74556 119.085698,563.820882 C119.484568,566.557423 119.444681,569.028281 117.955568,571.459287 C115.615533,575.258563 116.612707,579.562638 116.626003,583.614313 C116.639298,587.599568 115.362916,589.871163 111.294446,590.535372 C99.8070036,592.395158 88.4924042,590.535372 77.2176918,588.834997 C74.0666224,588.356766 74.2261702,585.155279 74.3192397,582.710989 C74.4654919,578.739019 72.7769442,577.596579 69.1472313,578.818724 C67.5916401,579.336807 65.7302489,579.44308 64.4804576,580.372973 C53.4982495,588.569313 41.2928415,585.38111 29.4995986,583.893281 C18.1318166,582.45859 9.43646055,575.510962 1.7781653,567.487316 C-2.29030405,563.209809 1.11338272,554.242986 7.02994763,553.499072 C11.098417,552.980989 15.3663211,552.888 19.4214948,553.485788 C28.8481117,554.880627 36.2404939,550.828952 42.9415023,545.16989 C47.2492933,541.530024 50.2142236,536.614877 53.0329017,531.699729 C56.3834059,525.774984 58.2447971,518.203 68.0303966,518.309273 Z" id="Path"></path>
        </g>
    </g>
</svg>