<?xml version="1.0" encoding="UTF-8"?>
<svg width="408px" height="612px" viewBox="0 0 408 612" version="1.1" xmlns="http://www.w3.org/2000/svg" xmlns:xlink="http://www.w3.org/1999/xlink">
    <!-- Generator: Sketch 59.1 (86144) - https://sketch.com -->
    <title>a-front</title>
    <desc>Created with Sketch.</desc>
    <g id="a-front" stroke="none" stroke-width="1" fill="none" fill-rule="evenodd">
        <g id="a-front-removebg-preview" transform="translate(97.000000, 0.000000)" stroke="#000000">
            <path d="M173,-1.13686838e-13 C180.01,17.69 181.73,36.62 184.49,55.1 C186.42,68.04 189.08,80.93 190.58,93.99 C191.74,104.1 196,113.83 198.55,123.82 C204.13,145.67 206.2,168.02 208.35,190.42 C211.62,224.6 211.5,258.93 213.84,293.14 C214.44,302.01 212.36,310.7 211.17,319.43 C209.03,335.12 208.11,350.92 207.5,366.7 C206.76,385.88 204.23,404.84 202.15,423.87 C200.05,443.07 198.44,462.32 196.21,481.5 C195,491.94 194.89,502.36 195,512.82 C195.03,515.41 194.42,517.87 191.84,519.17 C188.38,520.92 188.54,523.4 191.06,525.45 C197.27,530.5 200.58,537.38 203.71,544.38 C212.8,564.72 228.46,577.95 248.93,585.63 C254.75,587.82 256.59,591.9 257.72,597.15 C258.15,599.14 257.23,599.95 255.57,600.36 C252.01,601.23 248.48,602.31 244.88,602.85 C230.95,604.92 217.14,608.3 202.84,605.37 C196.74,604.12 192.11,601.79 188.92,596.13 C184.85,588.9 183.75,588.77 175.64,591 C164.94,593.95 154.91,590.35 144.82,587.73 C142.21,587.05 141.7,584.58 141.73,582.05 C141.78,576.59 142.18,571.17 139.28,566.02 C137.91,563.59 138.76,560.49 139.42,557.69 C142.13,546.23 145.84,534.95 145.82,522.98 C145.82,522.21 146.17,520.84 146.57,520.75 C152.55,519.47 149.36,515.03 149.89,511.77 C152.81,493.93 149.09,476.05 150.54,458.14 C151.69,443.92 150.99,429.53 150.74,415.23 C150.66,410.28 149.21,405.36 148.86,400.4 C147.74,384.39 148.79,368.44 151.21,352.62 C153.17,339.77 152.89,327.24 150.02,314.48 C145.9,296.13 143.32,277.43 139.04,259.12 C133.29,234.58 123.56,211.28 115.14,187.58 C110.13,173.45 105.52,159.18 100.71,144.98 C99.99,142.86 99.13,140.78 97.92,138.8 C96.86,147.48 97.26,156.08 96.48,164.66 C94.75,183.9 92.15,203.04 90.02,222.23 C88.19,238.63 86.66,255.1 87.36,271.57 C88.3,293.77 84.3,315.36 80.95,337.08 C79.01,349.64 79.5,362.22 80.39,374.91 C82.26,401.46 87.04,427.84 85.88,454.54 C85.39,465.74 88.16,476.71 87.21,487.86 C87.06,489.59 87.91,491.03 88.75,492.51 C89.65,494.09 90.71,495.8 90.87,497.52 C91.64,506.28 95.05,514.41 95.91,523.29 C97.39,538.66 100.9,553.84 103.5,569.1 C104.09,572.54 104.44,576.02 104.88,579.49 C105.3,582.82 104.02,585.29 101.14,587.03 C93.03,591.93 84.7,595.12 75.1,591.42 C71.85,590.17 68.41,589.41 65.08,588.36 C57.02,585.83 53.74,582.07 54.46,570.1 C55.28,556.48 57.76,542.96 58.48,529.41 C59.37,512.91 57.07,496.5 52.27,480.38 C41.75,445.08 33.63,409.16 27.49,372.85 C24.73,356.51 24.83,339.9 27.17,323.54 C30.12,302.92 28.13,282.67 24.25,262.51 C17.53,227.67 10.4,192.92 3.54,158.11 C-0.6,137.09 0.16,116.01 3.32,94.97 C5.81,78.34 9.2,61.82 10.95,45.12 C11.77,37.26 11.29,29.24 13.57,21.53 C15.3,15.69 16.3,9.48 21.77,5.45 C23.39,4.25 23.55,1.94 24.02,-1.13686838e-13 C73.67,-1.13686838e-13 123.33,-1.13686838e-13 173,-1.13686838e-13 Z" id="Path"></path>
        </g>
    </g>
</svg>