<?xml version="1.0" encoding="UTF-8"?>
<svg width="408px" height="612px" viewBox="0 0 408 612" version="1.1" xmlns="http://www.w3.org/2000/svg" xmlns:xlink="http://www.w3.org/1999/xlink">
    <!-- Generator: Sketch 59.1 (86144) - https://sketch.com -->
    <title>b-back</title>
    <desc>Created with Sketch.</desc>
    <g id="b-back" stroke="none" stroke-width="1" fill="none" fill-rule="evenodd">
        <g id="b-back-removebg-preview" transform="translate(85.818182, 0.000000)" stroke="#000000">
            <path d="M233.08328,0 C236.490027,17.3666219 235.265727,34.6799719 232.830436,52.0332758 C230.900833,65.7108223 230.275376,79.4682766 231.832366,93.2523668 C231.965442,94.3977115 232.178363,95.6495999 231.872288,96.7150368 C228.159467,109.580188 231.180293,122.445339 231.858981,135.297171 C231.898904,135.96307 232.08521,136.682239 231.885596,137.281548 C229.024461,146.098038 228.172774,156.526002 222.783195,163.384752 C211.737883,177.44852 207.319759,192.923991 205.403464,210.05089 C203.606937,226.045761 200.785725,241.920772 198.217358,257.822418 C193.200391,288.893222 192.841086,319.910754 198.403664,350.981559 C201.690642,369.360346 200.040499,387.725815 197.245903,405.998058 C192.920931,434.391952 189.647261,462.95898 183.299533,491.019925 C181.330008,499.703235 180.292015,508.333275 181.835697,517.163083 C182.301463,519.800039 181.476392,521.784416 178.947947,522.823217 C175.328279,524.314828 174.303593,527.204826 174.21044,530.813994 C174.077364,535.515234 174.649591,540.056659 176.020274,544.571448 C179.799634,557.03706 179.892787,570.10198 181.822389,582.860587 C182.301463,586.070216 179.506866,587.388694 176.951806,588.347588 C173.438599,589.666066 169.739085,589.466296 166.092801,589.386389 C162.872361,589.306481 160.836298,590.145512 161.608139,593.941131 C162.073905,596.191867 161.608139,598.043064 158.866772,598.189561 C156.218559,598.336059 155.273719,596.511498 155.393488,594.327352 C155.606409,590.238738 153.317501,589.253209 149.844217,589.093393 C147.874691,589.000168 145.891858,588.520721 143.962256,588.027957 C141.9395,587.508556 140.222819,586.403165 139.823591,584.165748 C138.665829,577.6799 136.749534,571.220689 138.373062,564.54839 C139.464286,560.060237 139.584054,555.332361 138.040372,551.243747 C134.726778,542.5338 137.561298,534.915926 141.007968,527.31137 C142.591573,523.808746 143.363414,520.692343 141.646733,516.910042 C139.876821,513.007879 142.019346,508.799403 141.713271,504.617563 C141.300735,498.89084 141.779809,492.911075 143.030723,487.304213 C146.77016,470.47031 143.203722,453.956038 141.593502,437.361857 C139.158211,412.403997 136.643073,387.526045 139.796976,362.381734 C141.393888,349.689717 140.755123,336.73134 138.692445,324.11923 C136.150692,308.670395 135.964386,293.035108 134.048091,277.586273 C129.896118,244.278051 131.067187,210.596926 126.409526,177.328658 C124.732768,165.369129 125.171919,153.129922 123.122548,141.157075 C122.803165,139.332514 123.202393,136.708875 120.301336,136.668921 C117.347048,136.628968 114.366144,137.428045 113.580996,140.690946 C112.596233,144.699652 111.638085,148.868174 111.651393,152.956788 C111.797777,176.462991 108.218031,199.622926 105.689586,222.876087 C105.316973,226.325439 105.410127,229.841381 105.410127,233.330686 C105.370204,263.908726 103.028066,294.32695 99.6612417,324.705221 C97.8780228,340.766682 98.2240205,356.881416 100.087085,372.902924 C102.522377,393.878713 100.978695,414.654733 97.9844836,435.417435 C96.4674167,445.925307 94.8838118,456.433178 93.632897,466.981004 C92.7812104,474.159385 95.7088833,481.031453 95.9617278,488.209835 C96.2811103,497.492454 97.398949,506.735119 98.1175596,516.00442 C98.3038661,518.401654 97.5187174,520.625753 96.2944179,522.636765 C95.2697323,524.328146 94.6841978,526.072799 95.6423453,527.817452 C101.936842,539.284217 101.377923,552.20264 103.640215,564.535072 C104.8379,571.060873 106.820733,577.293679 104.624978,584.072522 C103.440601,587.721643 101.683998,589.865835 97.9312532,590.371918 C95.7887289,590.651595 93.6462046,591.170995 91.5036804,591.170995 C86.9391722,591.197631 82.6807389,591.184313 83.1065822,597.723433 C83.213043,599.37486 81.5895153,600.227209 79.8462192,599.947532 C78.0230774,599.654537 77.1846984,598.229515 77.5306961,596.671314 C78.6219196,591.677078 75.7607847,591.250903 71.9681176,591.277539 C69.8389009,591.290857 67.6697615,590.771457 65.5804676,590.22542 C63.078638,589.57284 61.5615712,587.868141 61.5881864,585.177913 C61.7212624,573.258337 60.6965769,561.312126 62.3600274,549.419186 C63.1717913,543.585919 65.8998501,538.072283 64.5291669,531.852795 C63.8238639,528.643166 63.5976346,525.619989 60.0178891,524.274875 C58.274593,523.622294 57.3962911,522.144001 57.4229063,520.359394 C57.6491356,509.771614 54.3222345,499.703235 52.8850133,489.368497 C48.3338127,456.832717 42.3453909,424.496707 39.6705624,391.721203 C38.6325693,378.989232 38.7523378,366.164035 40.4956339,353.418746 C45.0601421,320.07057 44.4213771,286.935482 37.4881154,253.880301 C31.9388445,227.404194 26.7754941,200.821542 23.315517,173.959214 C23.1425181,172.6141 22.9162889,171.268986 21.9182186,170.310092 C5.74947959,154.64817 2.1963493,135.350443 5.7760948,114.068341 C6.70762709,108.568023 6.64108907,103.174248 5.28371345,97.7671558 C4.84456251,96.0091848 4.32556596,94.1180343 4.55179522,92.3733813 C6.46809021,77.5238542 4.61833325,62.8607785 2.44919378,48.2509747 C0.0671326444,32.2427849 -0.199019438,16.1813233 0.559513996,0.0665898078 C11.8709775,0.0665898078 23.182441,0.0665898078 34.4939044,0.0665898078 C35.4387443,19.2977263 32.3646878,38.3557293 32.1783813,57.6268196 C32.391303,50.9944748 35.7048964,45.6672902 38.6857997,40.1403361 C40.0830982,37.5433336 41.1743217,34.6666539 41.8130867,31.7899742 C42.8510798,27.0487799 44.7008368,22.7603963 46.8566686,18.4187408 C49.6911883,12.6786994 52.5124004,6.76552447 52.4724776,0.0665898078 C92.72798,0.0665898078 132.983482,0.0665898078 173.238985,0.0665898078 C177.776878,12.0527552 187.691043,21.5484618 189.407724,34.8797413 C189.567415,36.1049938 190.618716,37.2103846 191.217558,38.3956832 C193.213698,42.3910716 196.620445,46.3065523 196.899905,50.4218024 C197.472132,59.0518415 201.451105,66.6697155 202.64879,75.0333954 C203.3674,80.027631 204.937698,84.9153229 206.122074,89.8429686 C203.620245,59.8242833 198.377049,30.151865 197.20598,0.0665898078 C209.129593,0 221.106437,0 233.08328,0 Z" id="Path"></path>
        </g>
    </g>
</svg>