<?xml version="1.0" encoding="UTF-8"?>
<svg width="408px" height="612px" viewBox="0 0 408 612" version="1.1" xmlns="http://www.w3.org/2000/svg" xmlns:xlink="http://www.w3.org/1999/xlink">
    <!-- Generator: Sketch 59.1 (86144) - https://sketch.com -->
    <title>b-front</title>
    <desc>Created with Sketch.</desc>
    <g id="b-front" stroke="none" stroke-width="1" fill="none" fill-rule="evenodd">
        <g id="b-front-removebg-preview" transform="translate(80.000000, 0.000000)" stroke="#000000">
            <path d="M243,-2.27373675e-13 C244.5,11.41 245.11,22.86 245.15,34.37 C245.19,45.56 246.92,56.59 249.12,67.54 C249.58,69.81 250.35,72.23 249.99,74.42 C247.82,87.56 252.16,100.18 252.67,113.08 C252.97,120.76 249,127.43 246.15,134.28 C241.55,145.34 231.29,150.99 222.69,158.18 C221.3,159.34 220.37,160.19 220.1,161.98 C215.76,190.6 210.64,219.1 207.13,247.84 C205.16,264.02 202.93,280.17 203.17,296.55 C203.39,311.39 205.69,326.05 206.59,340.83 C207.62,357.61 208.54,374.36 206.69,391.14 C204.14,414.29 201.61,437.43 199.19,460.59 C197.8,473.83 195.54,486.96 194.74,500.27 C194.62,502.19 194.1,504.71 192.8,505.81 C187.46,510.3 188.35,516.13 189.56,521.48 C192.74,535.49 194.07,549.77 196.27,563.91 C197.1,569.23 196.31,574.83 196.08,580.29 C196.02,581.82 194.72,582.91 193.61,583.93 C184.38,592.39 169.69,594.33 158.57,588.59 C155.9,587.21 154.56,585.26 153.78,582.15 C151.86,574.51 152.8,567.06 153.43,559.4 C154.27,549.14 154.64,538.77 153.2,528.47 C152.59,524.09 153.01,519.71 154.42,515.63 C156.36,509.99 156.57,504.48 156.17,498.52 C155.46,487.9 155.05,477.12 156.11,466.57 C157.66,451.24 155.24,436.29 153.07,421.41 C150.02,400.45 146.29,379.64 147.96,358.34 C148.9,346.39 149.44,334.44 149.05,322.44 C148.64,309.9 145.66,297.7 144.58,285.26 C143.35,271 141.16,256.75 141.03,242.49 C140.8,218.01 136.78,194.12 132.53,170.17 C130.42,158.25 128.13,146.25 129.3,133.99 C129.56,131.31 127.82,129.55 125.64,129.46 C122.9,129.34 124.3,131.95 124.23,133.32 C123.45,148.48 120.55,163.38 118.65,178.4 C116.85,192.61 115.61,206.88 115.13,221.18 C114.22,248.32 111.58,275.29 108.51,302.25 C106.4,320.68 106.19,339.19 108.48,357.58 C110.58,374.43 109.14,391.12 107.94,407.87 C106.97,421.47 106.49,435.12 105.11,448.68 C103.47,464.77 106.4,480.52 108,496.32 C109.81,514.15 112.78,531.86 113.14,549.85 C113.26,555.65 114.07,561.45 114.79,567.23 C115.48,572.78 114.73,578.2 113.73,583.61 C113.34,585.7 111.9,587.09 110.19,588.25 C99.28,595.67 85.86,595.63 75.03,588.21 C72.32,586.35 71.53,584.09 71.31,580.7 C70.65,570.83 72.61,561.16 72.76,551.39 C72.89,542.86 73.72,534.44 75.63,526.13 C76.49,522.38 76.91,518.6 76.89,514.73 C76.88,511.44 76.75,508.44 73.26,506.68 C71.74,505.91 70.88,504.24 70.9,502.49 C71.08,488.82 66.26,475.99 64.22,462.68 C59.68,433.08 53.21,403.78 50.09,373.96 C48.46,358.38 48.78,342.77 50.48,327.12 C52.85,305.21 52.64,283.25 49.61,261.36 C45.57,232.18 41.45,203.02 35.87,174.09 C35.46,171.94 35.53,169.64 32.23,169.98 C30.73,170.14 29.98,168.76 29.29,167.6 C26.77,163.42 23.72,159.57 19.9,156.65 C11.34,150.1 8.33,139.72 2.07,131.6 C0.37,129.39 0.29,126.29 0.46,123.4 C0.96,114.93 2.36,106.37 1.67,97.99 C0.39,82.42 3,67.16 3.59,51.75 C3.93,42.8 2.73,33.8 2.43,24.82 C2.16,16.51 2.36,8.2 4,-2.27373675e-13 C16,-2.27373675e-13 28,-2.27373675e-13 40,-2.27373675e-13 C39.56,4.46 39.27,8.94 38.64,13.37 C35.74,33.65 29.91,53.35 26.65,73.55 C25.4,81.27 25.29,88.84 30.11,95.61 C30.76,96.53 31.22,98.02 32.51,97.9 C34.12,97.75 33.62,96.11 33.77,95.07 C37.27,70.55 43.23,46.54 48.93,22.49 C49.98,18.06 49.75,12.67 53.7,9.69 C57.18,7.07 58.86,3.85 59.98,-2.27373675e-13 C104.65,-2.27373675e-13 149.31,-2.27373675e-13 193.98,-2.27373675e-13 C194.07,1.57 194.47,3.03 196.07,3.67 C198.88,4.79 200.14,7.29 200.7,9.81 C202.39,17.29 205.23,24.4 207.24,31.76 C211.16,46.07 211.15,61.03 214.29,75.47 C215.53,81.15 215.59,87.1 217.81,92.92 C225,83.87 225.19,73.7 223.27,63.92 C220.77,51.24 218.31,38.49 214.32,26.11 C211.57,17.59 208.96,8.98 207.98,-2.27373675e-13 C219.67,-2.27373675e-13 231.33,-2.27373675e-13 243,-2.27373675e-13 Z" id="Path"></path>
        </g>
    </g>
</svg>