<?xml version="1.0" encoding="utf-8"?>
<!-- Generator: Adobe Illustrator 24.0.1, SVG Export Plug-In . SVG Version: 6.00 Build 0)  -->
<svg version="1.1" id="Layer_1" xmlns="http://www.w3.org/2000/svg" xmlns:xlink="http://www.w3.org/1999/xlink" x="0px" y="0px"
	 viewBox="0 0 612 792" style="enable-background:new 0 0 612 792;" xml:space="preserve">
<style type="text/css">
	.st0{fill:none;stroke:#000000;stroke-miterlimit:10;}
</style>
<g>
	<path class="st0" d="M402,166.75c-0.15,6.91,2.06,13.54,2.31,20.42c0.54,15.16-1.62,30.09-3.3,45.08
		c-0.83,7.41-1.87,14.85-0.66,22.36c0.74,4.62-0.38,9.2-0.69,13.79c-0.53,7.67,2.1,15.08,1.61,22.72
		c-0.57,8.85-2.88,17.41-4.39,26.11c-0.02,0.12-0.07,0.24-0.12,0.36c-1.85,4.86-15.68,9.67-20.13,7.09
		c-1.16-0.67-1.07-1.82-1.65-2.78c-1.11,0.92-0.59,2.11-0.62,3.12c-0.87,27.43-0.84,54.88-0.72,82.32
		c0.05,11.34,2.04,22.58,2.5,33.93c0.76,18.59,0.68,37.18,0.18,55.75c-0.51,19.09-0.46,38.17-0.55,57.25
		c-0.01,2.89-0.02,5.82-0.98,8.51c-1.31,3.68-0.32,7.41-0.78,11.09c-0.18,1.5,0.71,2.8,1.72,4.01c4,4.8,3.99,10.54,3.68,16.33
		c-0.01,0.24-0.03,0.57-0.18,0.72c-5.6,5.64-8.83,14.14-18.69,14.6c-4.5,0.21-8.92,0.57-13.43,0.02c-3.51-0.43-5.27-2.12-6.25-5.39
		c-1.48-4.89-1.35-9.86-1.27-14.84c0.01-0.58,0.17-1.49,0.54-1.67c4.36-2.05,2.59-4.18,0.22-6.45c-1.11-1.06-1.57-2.53-1.93-4
		c-4.71-19.09-6.58-38.56-7.66-58.13c-1.45-26.52-2.18-53.07-2.7-79.63c-0.52-26.96-4.58-53.6-8.83-80.23
		c-3.48-21.82-7.51-43.48-12.58-64.97c-0.36-1.55-0.51-3.53-2.63-3.57c-2.18-0.04-4.24,0.61-5.12,3c-0.22,0.58-0.5,1.16-0.61,1.77
		c-3.94,23.23-10.24,46.03-12.44,69.57c-1.81,19.36-3.9,38.7-5.37,58.08c-1.34,17.8-0.38,35.67-0.58,53.5
		c-0.23,20.71-0.01,41.42-0.2,62.13c-0.09,10.24-1.3,20.41-3.12,30.48c-0.61,3.37-2.3,6.49-2.28,10.09
		c0.01,1.92-1.66,3.27-3.17,4.44c-0.97,0.75-0.93,1.66-0.41,2.66c0.56,1.08,1.18,1.42,2.37,0.69c1.94-1.19,1.65,0.41,1.72,1.51
		c0.44,7.03-2.5,13.31-4.46,19.8c-0.6,1.98-2.4,2.78-4.32,3.18c-6.06,1.26-12.17,1.12-18.27,0.37c-2.95-0.36-4.81-2.1-6.23-4.77
		c-2.75-5.17-6.11-10.04-5.64-16.34c0.11-1.51,0.06-3.02,0.84-4.34c4.1-6.91,3.44-13.95,0.83-21.13c-1.67-4.59-2.78-9.35-2.94-14.24
		c-0.5-14.83-1.54-29.68-1.2-44.5c0.6-26.07-0.04-52.15,0.78-78.2c0.61-19.39-2.09-38.55-2.35-57.85
		c-0.12-8.73-0.54-17.45-0.86-26.17c-0.21-5.73-0.56-11.46-0.67-17.2c-0.05-2.56-1.09-3.98-3.6-4.38c-4.5-0.73-8.56-2.64-12.66-4.5
		c-2.36-1.07-3.84-2.68-4.58-5.08c-3.79-12.3-7.08-24.64-4.59-37.72c0.94-4.93,0.91-9.91-0.14-14.88c-1.25-5.9-0.58-11.94-1.19-17.9
		c-0.95-9.21-3.18-18.18-4.93-27.23c-3.12-16.16-3.84-32.41-2.13-48.77c10.5,0,21,0,31.5,0c0.4,5.09-0.37,10.17-0.42,15.26
		c-0.12,11.32-1.57,22.59-2.85,33.85c-1.45,12.74-3.01,25.5-2.55,38.36c0.17,4.61,0.45,9.26,3.38,13.18c0.5,0.67,1,1.62,2.05,1.24
		c0.9-0.33,0.68-1.22,0.56-1.95c-0.91-5.34,0.63-10.36,1.9-15.45c2.85-11.48,6.35-22.77,8.79-34.38c1.97-9.38,1.38-19.15,4.82-28.26
		c1.21-3.2,0.9-6.59,0.33-9.98c-0.65-3.92-1.43-7.86-1.01-11.89c37.5,0,75,0,112.5,0c-0.14,7.21,2.79,13.88,3.76,20.9
		c0.07,0.53,0.61,1.07,1.06,1.47c7.84,6.89,7.55,16,6.89,25.19c-0.13,1.85-1.17,3.8-0.36,5.52c2.84,5.99,2.73,12.58,4.04,18.87
		c1.78,8.51,5.29,16.64,5.49,25.51c0.05,2.37-0.28,4.88,0.64,7.52c2.93-1.94,4.11-4.39,4.7-7.31c1.17-5.75,0.68-11.48-0.57-17.07
		c-5.98-26.63-11.32-53.36-13.65-80.6C379,166.75,390.5,166.75,402,166.75z M227.92,300.79c-0.59-2.41-0.91-4.93-1.86-7.19
		c-0.86-2.06-2.88-3.22-4.74-1.24c-1.84,1.96-2.14,4.81-1.86,7.39c0.27,2.5,2.76,3.02,4.71,3.69
		C226.37,304.2,227.9,303.57,227.92,300.79z M381.11,304.49c3.2,0.11,4.62-0.76,4.75-2.91c0.19-3.27-2.02-7.25-4.02-7.22
		c-2.17,0.03-4.23,3.47-4.36,7.07C377.38,304.11,379.03,304.51,381.11,304.49z"/>
</g>
</svg>
