<?xml version="1.0" encoding="utf-8"?>
<!-- Generator: Adobe Illustrator 24.0.1, SVG Export Plug-In . SVG Version: 6.00 Build 0)  -->
<svg version="1.1" id="Layer_1" xmlns="http://www.w3.org/2000/svg" xmlns:xlink="http://www.w3.org/1999/xlink" x="0px" y="0px"
	 viewBox="0 0 612 792" style="enable-background:new 0 0 612 792;" xml:space="preserve">
<style type="text/css">
	.st0{fill:none;stroke:#000000;stroke-miterlimit:10;}
</style>
<g>
	<path class="st0" d="M440,91c2.58,23.33-1.87,46.11-5.22,69c-3.56,24.29-4.95,48.68-1.19,73.08c2.11,13.73-2.77,26.2-6.23,38.95
		c-0.32,1.18-1.31,2.44-2.34,3.14c-6.05,4.11-11.84,8.8-18.94,11c-3.92,1.21-5.29,3.4-4.95,7.33c1.23,14.3,0.49,28.63,0.01,42.93
		c-0.73,21.8-2.19,43.57-2.62,65.37c-0.27,13.98-0.51,27.94-1.1,41.91c-0.86,20.64-1.52,41.29-1.06,61.96
		c0.24,10.82,0.96,21.65,0.84,32.46c-0.24,20.17-1.53,40.28-7.07,59.84c-1.65,5.82-0.62,12.33-4.72,17.56
		c-0.67,0.85-0.55,2.69-0.19,3.89c2.07,6.99,1.82,14.18,2.05,21.33c0.1,3.05,1,5.52,3.73,7.16c0.85,0.51,1.6,1.2,2.33,1.88
		c5.61,5.2,4.87,8.99-2.31,11.62c-3.31,1.21-6.76,1.78-10.29,1.77c-6.48-0.01-12.96,0-19.42,0.31c11.75,1.9,23.51,3.47,34.56-2.95
		c2.19-1.27,2.93-0.41,3.61,1.49c2.05,5.66-2.09,14.47-7.78,16.31c-13.67,4.43-27.29,3.37-40.82-0.59c-5.36-1.57-8-5.83-7.86-10.98
		c0.24-8.96-1.45-17.47-3.65-26.07c-1.59-6.21-0.04-12.6,1.66-18.7c0.74-2.63,0.2-4.25-1.03-6.74c-2.82-5.68-5.04-11.75-5.33-18.33
		c-1.49-33.64-0.44-67.29,0.39-100.9c0.6-24.14,2.9-48.24,1.72-72.41c-1.12-22.81-4.9-45.35-7.93-67.95
		c-3.56-26.6-8.69-52.91-15.02-78.99c-1.85-7.64-4.85-14.88-7.33-22.3c-0.45-1.35-0.8-3.33-2.53-3.37c-2.09-0.06-2.27,2.13-2.84,3.6
		c-5.97,15.49-8.3,31.88-11.8,47.99c-7.01,32.21-8.06,65.07-11.18,97.72c-2.69,28.12-1.93,56.2-0.3,84.34
		c1.31,22.64-0.77,45.3-0.78,67.96c0,12.87,1.89,25.58,2.03,38.41c0.15,13.67-2.2,26.88-8.19,39.23
		c-2.23,4.59-1.44,10.16-5.19,14.28c-1.02,1.11,0.71,2.53,2.39,3.66c1.17-4.73,1.34-9.28,3.37-13.3c0.54-1.07,0.52-3.01,2.41-2.54
		c1.34,0.33,1.19,1.85,1.28,2.98c0.47,5.95,0.31,11.7-4.63,16.13c-1.74,1.56-2.39,3.49-1.55,5.87c1.61,4.59,0.88,9.2-0.06,13.81
		c-0.96,4.73-3.69,7.79-8.39,8.87c-13.38,3.06-26.79,2.45-40.2,0.2c-5.95-1-7.33-8.49-6.55-15.02c0.63-5.24,2.81-10.35,7.2-13.91
		c2.65-2.15,4.08-4.87,4.2-8.17c0.43-11.84,2.66-23.61-1.38-35.47c-2.79-8.19-2.5-17.11-2.28-25.76
		c0.35-13.51-0.15-26.96-1.26-40.42c-1.06-12.94-1.41-25.94-2.27-38.9c-1.5-22.6-3.16-45.18-4.74-67.77
		c-0.46-6.64-1.2-13.29-1.24-19.94c-0.18-29.99-2.65-59.92-2.1-89.93c0.12-6.83-0.08-13.66,0.7-20.47c0.56-4.91-1.4-7.95-6.39-9.05
		c-8.26-1.82-14.78-6.96-20.99-12.18c-4.09-3.43-3.96-9.33-5.65-14.16c-6.18-17.58-3.37-35.64-2.49-53.48
		c1.08-21.85,1.36-43.52-2.2-65.24c-3.22-19.65-2.54-39.52-0.87-59.33c16,0,32,0,48,0c-0.41,8.19-2.57,16.22-2.08,24.96
		c6.23-7.47,5.36-16.81,8.08-24.96c50.67,0,101.33,0,152,0c0.57,3.7-1.59,7.57,0.72,11.17c5.16,8.07,4.38,17.14,3.96,26.02
		c-0.14,3.04-0.29,5.81,0.73,8.75c3.69,10.68,7.39,21.37,9.28,32.57c2.04,12.13,4.09,24.26,6.05,36.4c0.56,3.45,1.64,3.89,4.3,1.45
		c3.9-3.58,6.07-7.58,5.87-13.1c-0.64-18.18-3.47-36.04-6.88-53.85c-3.13-16.33-6.27-32.67-6.03-49.41C410.67,91,425.33,91,440,91z
		 M206.37,218.12c0.16-1.28,0.33-2.07,0.34-2.86c0.14-17.56,2.22-34.84,7.02-51.77c0.49-1.72,1.59-3.92,0.48-5.32
		c-3.25-4.11-0.91-7.37,0.9-10.93c3.85-7.58,3.2-15.51,1.67-23.49c-2.73,10.32-4.91,20.71-7.2,31.07
		c-3.21,14.48-8.75,28.3-11.73,42.87C196.06,206.45,198.17,213.04,206.37,218.12z M402.82,261.68c10.56-2.2,16.04-13.68,11.24-22.1
		c-0.69-1.21-1.51-2.23-3.08-2.05c-1.25,0.14-2.24,0.81-2.62,2c-0.51,1.57-1.12,3.19-1.16,4.81
		C407.04,250.22,405.61,255.77,402.82,261.68z M202.44,266.76c-1.43-6.21-2.8-12.33-4.28-18.42c-0.31-1.25-0.85-2.66-2.48-2.76
		c-1.57-0.1-2.32,1.07-2.91,2.3C189.4,254.94,194.44,265.01,202.44,266.76z M205.47,279.97c1.66,0.33,3.06,0.16,3.31-1.87
		c0.26-2.07,0.14-4.25-2.35-4.76c-3.87-0.8-7.8-1.29-11.52-2.75c-0.79-0.31-1.69-0.3-2.17,0.57c-0.49,0.9,0.1,1.66,0.74,2.14
		C197.2,276.03,200.79,278.99,205.47,279.97z"/>
</g>
</svg>
