<?xml version="1.0" encoding="utf-8"?>
<!-- Generator: Adobe Illustrator 24.0.1, SVG Export Plug-In . SVG Version: 6.00 Build 0)  -->
<svg version="1.1" id="Layer_1" xmlns="http://www.w3.org/2000/svg" xmlns:xlink="http://www.w3.org/1999/xlink" x="0px" y="0px"
	 viewBox="0 0 612 792" style="enable-background:new 0 0 612 792;" xml:space="preserve">
<style type="text/css">
	.st0{fill:none;stroke:#000000;stroke-miterlimit:10;}
</style>
<g>
	<path class="st0" d="M412.5,180.75c0.47,16.12-2.2,31.84-6.14,47.39c-0.89,3.51-2.3,7.09-2.21,10.6
		c0.29,11.18-4.63,21.74-3.59,32.95c0.24,2.61,0.53,5.21,0.66,7.83c0.35,7.26-1.89,14.19-4.39,20.68
		c-2.44,6.34-9.08,9.04-15.31,10.93c-4.87,1.48-5.29,1.5-5.62,6.6c-0.81,12.85-0.43,25.72-0.93,38.56
		c-0.44,11.21-0.98,22.48-4.56,33.3c-0.93,2.82-0.59,5.71-0.38,8.56c0.79,10.6,0.91,21.18,0.18,31.81c-0.3,4.41,0.86,8.92,1.3,13.38
		c1.95,19.69,1,39.44,1.35,59.16c0.11,5.99-0.13,11.99,0.01,17.99c0.16,6.78-1.02,13.43-1.49,20.15c-0.13,1.95-0.77,3.75-2.32,4.95
		c-2.17,1.68-2.38,3.65-1.31,5.96c1.66,3.57,1.67,6.9-0.87,10.19c-1.25,1.62-0.94,3.43,0.25,5.21c3.14,4.66,2.6,10.36-1.13,14.7
		c-1.22,1.41-2.42,2.91-3.29,4.54c-2.25,4.26-5.83,6.44-10.46,6.93c-4.98,0.53-9.98,0.55-14.92-0.53c-2.65-0.58-4.42-2.26-4.29-4.93
		c0.24-5.2-1.07-10.01-2.43-14.96c-1.17-4.25-1.73-8.47-3.74-12.65c-2.75-5.72-2.73-12.47-2.06-18.78
		c0.73-6.9,1.23-13.53-1.39-20.22c-1.74-4.44-1.47-9.41-1.59-14.09c-0.38-15.61-2.72-31.09-2.55-46.74
		c0.19-17.99,1.65-35.93,2.12-53.9c0.34-12.87-0.25-25.69-2.05-38.47c-1.95-13.83-2.82-27.82-5.3-41.58
		c-1.82-10.07-4.39-20-5.43-30.22c-0.06-0.59-0.36-1.15-1.44-1.93c-1.07,3.42-2.81,6.79-3.1,10.28
		c-1.81,22.04-5.99,43.77-8.38,65.74c-2.58,23.74-4.05,47.51-3.7,71.38c0.1,6.61,1.1,13.21,1.08,19.81
		c-0.04,8.44,0.11,16.89-1.11,25.34c-1.65,11.42-0.72,22.96-0.67,34.45c0.02,3.88-0.3,7.71-0.59,11.57
		c-0.49,6.43-2.28,12.84-0.49,19.36c0.44,1.6-0.24,3.25-0.93,4.71c-2.82,6-4.85,12.19-5.12,18.88c-0.03,0.83-0.31,1.94-0.89,2.4
		c-3.52,2.8-4.45,6.71-5.11,10.83c-0.38,2.42-2.12,3.85-4.35,4.06c-6.58,0.61-13.19,1.24-19.73-0.46c-2.57-0.67-4.11-2.23-4.35-4.96
		c-0.19-2.14-0.87-4.14-1.84-6.06c-1.8-3.57-1.75-7.37-0.47-10.94c0.82-2.29,0.58-3.59-0.8-5.61c-4.93-7.23-7.93-14.98-4.36-23.89
		c0.99-2.47,0.25-5.05-0.77-7.28c-3.36-7.34-2.7-15.1-2.85-22.81c-0.23-11.58,0.53-23.16-0.08-34.74
		c-0.72-13.49-0.58-27.03,0.98-40.42c1.01-8.72-0.19-17.15-0.78-25.7c-1.33-19.08-1.75-38.16-0.63-57.28
		c0.82-13.96,1.11-27.94,1.69-41.91c0.16-3.85-2.72-4.87-5.37-6.3c-6.16-3.31-11.84-7.37-16.22-12.84
		c-4.58-5.72-4.52-12.79-4.37-19.63c0.19-8.76,2.56-17.4-0.59-26.3c-1.51-4.26-0.46-9.4-0.74-14.14
		c-0.6-10.25-3.59-20.16-4.51-30.36c-0.62-6.83-1.56-13.66-1.03-20.55c10.75,0,21.5,0,32.25,0c-0.37,3.22-0.79,6.44-1.1,9.66
		c-1.08,11.46-4.45,22.52-6.01,33.9c-1.58,11.55-1.95,22.74,7.38,31.72c0.68,0.65,0.84,2.09,2.07,1.86
		c1.12-0.21,1.27-1.49,1.48-2.41c1.71-7.52,3.53-15.02,4.94-22.59c0.61-3.27-0.35-6.75,0.76-10.03c1.51-4.45,1.87-9.01,1.63-13.66
		c-0.13-2.41,0.29-4.85,1.79-6.76c2.8-3.56,3.55-7.59,3.48-11.96c-0.06-3.24,0.04-6.49,0.07-9.73c36.5,0,73,0,109.5,0
		c0.91,8.79,1.72,17.61,5.47,25.8c0.54,1.17,0.68,2.39,0.67,3.64c-0.04,4.74-0.42,9.5-0.02,14.2c0.53,6.19,0.52,12.44,1.66,18.58
		c1.31,7.06,3.86,13.94,3.14,21.2c7.43-5.65,9.91-13.66,9.57-22.56c-0.42-10.84-2.38-21.54-3.77-32.29
		c-1.22-9.48-3.8-18.87-2.47-28.58C390.5,180.75,401.5,180.75,412.5,180.75z M239.65,296.34c-0.16-2.96,1.34-5.56,0.27-7.82
		c-1.75-3.7-2.63-7.5-2.93-11.51c-0.07-0.88-0.14-1.86-1.37-1.83c-1.09,0.03-1.94,0.51-2.17,1.68
		C232.34,282.53,232.62,291.85,239.65,296.34z M376.98,299.14c0.31,1.21-1.26,3.01,0.53,3.6c1.23,0.41,1.77-1.47,2.68-2.26
		c4.63-4.03,4.19-9.51,4.34-14.82c0.04-1.51-0.33-2.82-2.24-2.7c-1.73,0.11-1.86,1.44-1.81,2.73c0.1,2.84-0.6,5.47-2.12,7.83
		C377.24,295.27,376.4,297,376.98,299.14z"/>
</g>
</svg>
