<?xml version="1.0" encoding="utf-8"?>
<!-- Generator: Adobe Illustrator 24.0.1, SVG Export Plug-In . SVG Version: 6.00 Build 0)  -->
<svg version="1.1" id="Layer_1" xmlns="http://www.w3.org/2000/svg" xmlns:xlink="http://www.w3.org/1999/xlink" x="0px" y="0px"
	 viewBox="0 0 612 792" style="enable-background:new 0 0 612 792;" xml:space="preserve">
<style type="text/css">
	.st0{fill:none;stroke:#000000;stroke-miterlimit:10;}
</style>
<g>
	<path class="st0" d="M440,108c-0.83,21.34-6.17,42.13-7.85,63.35c-0.63,7.92-0.19,15.76-2.5,23.68
		c-2.34,8.02-0.39,16.59,0.92,24.79c1.77,11.09-0.95,21.79-6.01,30.82c-4.37,7.8-13.55,12.24-22.98,13.27
		c-4.96,0.54-6.35,2.28-6.59,7.04c-1.15,23.47-0.18,46.98-1.16,70.41c-1.09,26.07-1.49,52.19-4.99,78.18
		c-1.19,8.81-0.03,18.24,0.52,27.33c0.95,15.82,1.28,31.58,0.02,47.4c-0.82,10.28-0.94,20.7-0.68,30.93
		c0.34,13.39-4.75,24.69-9.96,36.09c-2.52,5.52-3.1,9.39,1.63,14c6.41,6.26,7.33,13.45,2.75,21.79c-3.22,5.88-3.21,13.17-6.33,19.32
		c-0.49,0.96,0.53,1.8,1.05,2.65c2.7,4.39,5.42,8.77,7.98,13.25c2.44,4.27,1.07,7.07-3.42,8.82c-5.72,2.23-11.53,2.73-17.55,2.24
		c-1.24-0.1-3.06-0.5-3.54,1.05c-0.54,1.75,1.17,2.67,2.44,3.31c3.46,1.76,6.56,3.88,10.89,0.83c3.49-2.46,8.99-0.54,12.19-5.02
		c1.45,5.57-0.8,9.71-5.96,12c-3.88,1.72-8.07,2.25-12.2,2.42c-6.48,0.27-13.01,0.33-19.48-0.15c-10.61-0.8-14.45-5.91-12.61-16.38
		c1.25-7.08,1.61-14.35-2.37-20.33c-3.74-5.62-5.29-11.96-8.11-17.84c-2.28-4.74-2.51-9.78-0.01-14.45c1.5-2.8,1.56-5.24,0.56-8.07
		c-3.82-10.83-3.72-22.13-4.35-33.41c-0.59-10.67-0.09-21.31-0.33-31.96c-0.92-41.15,1.72-82.26,0.82-123.41
		c-0.68-31.03-3.36-61.82-8.47-92.43c-2.24-13.45-4.38-26.94-5.41-40.56c-0.29-3.88-1.43-7.38-4.66-11.33
		c1.15,5.82,0.4,10.43-1,14.85c-6.92,21.86-9.74,44.53-13.04,67.07c-2.86,19.54-6.47,39.18-5.64,58.93
		c0.99,23.48,0.35,46.95,0.92,70.41c0.43,17.88-0.15,35.86-2.32,53.82c-1.46,12.12-4.58,24.16-4.04,36.54
		c0.17,3.9-1.23,7.55-2.75,11.08c-1.81,4.19-1.93,8.08,0.15,12.4c5.6,11.61,4.55,22.84-1.13,34.51c-3.27,6.71-8.29,13.45-6.52,21.93
		c0.3,1.44,0.09,3.35-1.12,4.21c-4.49,3.18-4.34,7.95-4.42,12.5c-0.12,6.93-4.49,10.14-10.17,11.97c-10.6,3.42-21.4,3.11-32.06,0.38
		c-6.88-1.76-9.97-8.04-8.74-15.82c1.19-7.51,5.34-13.57,9.4-19.65c2.35-3.51,2.78-6.59,1.93-11.05
		c-1.94-10.31-3.92-21.05,2.43-30.88c1.34-2.07,1.66-4.06-0.77-5.57c-6.03-3.74-7.35-9.92-7.34-16.09
		c0.03-10.8-1.27-21.51-0.87-32.39c0.34-9.31-1.57-18.85-1.22-28.35c0.86-23.62,1.66-47.24,4.41-70.75
		c0.44-3.73-0.49-7.61-0.6-11.42c-0.37-12.69,1.64-25.24,2.33-37.87c0.19-3.57-0.14-6.93-0.94-10.35
		c-4.35-18.68-5.79-37.79-8.45-56.72c-1.63-11.6-0.39-23.29-1.65-34.91c-0.54-4.98-3.26-6.4-7.34-7.15
		c-14.41-2.64-24.17-9.37-25.08-23.75c-0.01-0.17,0-0.36-0.08-0.49c-6.86-11.44-1.65-23.39-1.28-35.09
		c0.14-4.38,0.3-8.78-0.84-12.86c-1.62-5.77-1.69-11.49-1.39-17.32c0.6-11.66-2.95-22.75-4.84-34.04
		c-2.1-12.51-3.05-25.1-4.22-37.69c15,0,30,0,45,0c0.46,3.56-0.61,6.94-1.28,10.35c-3.66,18.43-7.58,36.82-10.96,55.3
		c-1.44,7.89-1.62,16.14,3.08,23.16c2.61,3.9,6.17,7.2,8.57,12.28c1.58-11.86,2.55-22.88,4.86-33.7c0.32-1.52,0.42-3.3-0.71-4.28
		c-2.87-2.51-1.86-4.96-0.4-7.55c1-1.77,1.58-3.65,1.66-5.69c0.3-7.45,0.7-14.91,0.88-22.36c0.1-3.8,0.56-7.67,3.67-9.92
		c2.91-2.1,3.94-4.64,4.48-7.87c0.54-3.27,1.41-6.5,2.14-9.74c49,0,98,0,147,0c1.43,6.65,0.77,13.89,6.45,19.3
		c1.99,1.9,2.07,5.2,1.83,8.08c-0.2,2.36-0.03,4.66,0.68,6.91c3.26,10.36,3.21,21.26,5.2,31.84c2.03,10.78,3.32,21.7,5.03,33.24
		c2-3.98,3.47-7.82,6.37-10.49c8.03-7.37,8.82-16.75,7.7-26.63c-1.15-10.1-3.64-19.94-5.92-29.83c-2.46-10.68-4.95-21.38-5.34-32.41
		C410.67,108,425.33,108,440,108z M210.2,261.52c-1.19-4.57,1-9.52-1.63-11.35c-6.2-4.33-7.49-10.08-7.74-16.72
		c-0.06-1.58-0.33-3.05-2.33-3.19c-2.32-0.17-2.52,1.39-2.79,3.19C193.89,245.51,198.97,254.19,210.2,261.52z M395.74,253.83
		c12.01-4.09,14.31-14.28,12.42-24.9c-0.3-1.67-0.75-3.47-2.91-3.37c-2.37,0.11-2.13,2.13-2.24,3.73c-0.34,4.83-0.64,10-3.99,13.56
		C395.83,246.25,396.24,249.88,395.74,253.83z"/>
</g>
</svg>
