<?xml version="1.0" encoding="utf-8"?>
<!-- Generator: Adobe Illustrator 24.0.1, SVG Export Plug-In . SVG Version: 6.00 Build 0)  -->
<svg version="1.1" id="Layer_1" xmlns="http://www.w3.org/2000/svg" xmlns:xlink="http://www.w3.org/1999/xlink" x="0px" y="0px"
	 viewBox="0 0 612 792" style="enable-background:new 0 0 612 792;" xml:space="preserve">
<style type="text/css">
	.st0{fill:none;stroke:#000000;stroke-miterlimit:10;}
</style>
<g>
	<path class="st0" d="M406.5,180.75c0.49,9.34,1.09,18.68,1.45,28.03c0.48,12.4-0.91,24.69-2.49,36.96
		c-0.16,1.24-0.33,2.48-0.37,3.72c-0.23,7.31,0.72,14.56-0.64,21.97c-1.26,6.86,1.05,13.87,2.14,20.76
		c0.49,3.06,0.45,5.79-0.68,8.75c-1.64,4.3-2.37,8.92-4.2,13.2c-0.67,1.58-1.54,2.63-3.1,3.48c-5.37,2.92-10.53,6.26-16.3,8.39
		c-1.92,0.71-2.54,2.1-2.81,4c-1.16,8.04-1.66,16.09-1.51,24.22c0.29,15.75,0.46,31.62-2.36,47.08
		c-2.28,12.47-2.14,24.82-2.07,37.26c0.07,12.14-1.72,24.14-2.06,36.24c-0.32,11.73-0.66,23.47-2.39,35.1
		c-1.32,8.88-2.94,17.72-4.39,26.59c-0.35,2.15-1.51,3.91-2.38,5.83c-2.39,5.29-4.41,10.68-3.46,16.76
		c0.65,4.13-0.1,8.26-1.83,12.05c-1.36,2.95-3.82,4.89-7.17,5.46c-3.32,0.57-6.62,1.44-9.97,1.7c-2.72,0.21-2.91,1.83-3.52,3.85
		c-0.81,2.69,1.85,1.7,2.46,2.76c-0.08,0.26-0.08,0.55-0.22,0.71c-1.16,1.27-3.27,2.37-2.77,4.15c0.64,2.27,3.06,0.63,4.6,1.12
		c3.36,1.08,6.83,0.74,10.3,0.99c-5.45,2.56-11.21,2.55-17.01,2.06c-1.73-0.15-3.45-0.57-5.13-1.04c-1.68-0.47-3.16-1.6-2.96-3.42
		c0.92-8.14-1.46-15.76-3.45-23.44c-0.83-3.23-0.24-6.24,1.17-9.07c1.68-3.36,2.1-6.8,2-10.51c-0.15-5.68,1.4-11.11,3.57-16.32
		c0.5-1.2,0.84-2.27,0.56-3.58c-3.55-16.8-3.08-33.67-1.47-50.67c0.83-8.76,0-17.67-0.13-26.51c-0.05-3.37-0.36-6.74-0.35-10.1
		c0.02-6.87,0.01-13.72-1.21-20.54c-1.1-6.19-0.06-12.5,0.23-18.66c0.55-11.44-1.13-22.67-1.61-33.99
		c-0.3-6.99-0.4-13.98-0.63-20.97c-0.32-9.34-3.53-18.12-5.35-27.16c-1.78-8.83-2.91-17.75-4.14-26.65
		c-0.21-1.53,0.27-3.6-2.16-3.64c-2.02-0.04-3.62,0.93-4.26,3c-0.33,1.07-0.61,2.17-0.8,3.27c-1.66,9.75-3.72,19.43-7,28.74
		c-4.58,12.99-5.82,26.56-8.01,39.98c-3.34,20.45-4.87,41.15-8.91,61.5c-1,5.06,0.63,10.23,0.44,15.3
		c-0.59,15.08-1.64,30.15-2.5,45.22c-0.13,2.37-0.22,4.74-0.27,7.11c-0.19,7.61,0.26,15.21-0.68,22.83
		c-0.75,6.1,0.11,12.24,1.45,18.23c1.07,4.81,0.36,9.45-0.86,14.05c-0.54,2.02-0.72,3.85,0.18,5.81c0.45,0.99,0.78,2.21,0.63,3.26
		c-0.78,5.62-0.98,11.17,0.52,16.73c0.35,1.31,0.09,2.79-0.91,3.89c-1.09,1.19-2.56,3.01-3.9,2.42c-1.87-0.83,0.23-2.5,0.29-3.84
		c0.05-1.33,1.08-2.55,0.31-4.34c-1.97,1.07-3.83,2.23-5.82,3.12c-2.73,1.22-5.51,2.3-8.64,2.2c-1.61-0.05-3.75-0.63-4.29,1.86
		c-0.52,2.41,1.11,3.81,2.74,5.1c0.55,0.44,1.32,0.6,1.98,0.89c-0.16,0.39-0.21,0.75-0.34,0.78c-2.05,0.52-4.65,0.74-4.29,3.64
		c0.32,2.62,2.97,2.18,4.81,2.59c3.17,0.71,6.36,0.07,9.55,0.13c-8.08,2.99-16.18,3.21-24.26-0.02c-1.36-0.54-2.09-1.7-2.31-3.19
		c-1.16-8.21-3.25-16.32-2.52-24.72c0.05-0.62-0.23-1.4,0.05-1.85c3.57-5.86,0.1-11.37-0.78-16.99c-0.31-1.99-0.73-3.94,0.29-5.85
		c0.45-0.85,0.29-1.71-0.18-2.5c-3.18-5.4-3-11.52-3.73-17.44c-2.77-22.62-2.49-45.37-1.96-68.06c0.27-11.53,0.22-23.1,1.01-34.67
		c0.89-13.12,3.02-26.2,2.62-39.5c-0.23-7.58-0.14-15.16-0.86-22.74c-0.21-2.23-0.23-4.53,0.11-6.74c1.3-8.5-0.59-16.96-0.17-25.44
		c0.09-1.79-0.68-3.07-2.26-3.98c-2.06-1.19-4.11-2.32-6.37-3.13c-6.71-2.39-9.76-7.23-11.08-14.28c-1.6-8.58,0.71-16.56,1.91-24.74
		c0.37-2.5,0.7-4.95,0.31-7.44c-2.8-17.94-5.56-35.88-8.35-53.82c-1.7-10.94-1.87-22.12-1.86-33.23c9.5,0,19,0,28.5,0
		c0.03,3.5-0.17,7.01,0.13,10.49c0.48,5.61,1.12,11.2,0.21,16.8c-2.52,15.49-2.42,31.08-1.61,46.68c0.11,2.04,0.47,4.09,1.6,5.9
		c0.92-0.49,0.82-1.18,1.01-1.75c2.64-8.04,2.29-16.53,3.74-24.75c0.52-2.94,1.31-5.89,1.37-8.85c0.16-9.15,1.94-17.73,7.6-25.17
		c1.41-1.85,1.89-3.8,1.22-5.97c-1.35-4.39-1.2-8.88-1-13.38c37,0,74,0,111,0c0.51,3.19,2.16,6.21,1.64,9.54
		c-0.5,3.22-0.54,6.1,2.76,8.1c0.78,0.47,1.19,1.93,1.35,2.99c1.17,7.49,4.67,14.44,4.7,22.24c0.03,7.73,2.53,15.2,3.49,22.87
		c0.91,7.27,1.76,14.58,2.81,22.86c1.04-3.82,1.89-6.65,1.66-9.5c-0.91-11.19-0.92-22.51-3.46-33.49
		c-3.47-15.03-5.9-30.13-5.19-45.61C387,180.75,396.75,180.75,406.5,180.75z"/>
</g>
</svg>
