<?xml version="1.0" encoding="utf-8"?>
<!-- Generator: Adobe Illustrator 24.0.1, SVG Export Plug-In . SVG Version: 6.00 Build 0)  -->
<svg version="1.1" id="Layer_1" xmlns="http://www.w3.org/2000/svg" xmlns:xlink="http://www.w3.org/1999/xlink" x="0px" y="0px"
	 viewBox="0 0 612 792" style="enable-background:new 0 0 612 792;" xml:space="preserve">
<style type="text/css">
	.st0{fill:none;stroke:#000000;stroke-miterlimit:10;}
</style>
<g>
	<path class="st0" d="M247.54,605.43c-1.83-5.05-0.39-8.44,5.67-10.45c-2.25-0.61-4.55-0.5-3.02-3.19c1.59-2.79,0.19-5.18-2.01-7.03
		c-4.06-3.4-5.32-7.94-5.33-12.94c-0.01-2.38-0.21-4.67-1.49-6.73c-5.39-8.67-5.94-18.61-7.41-28.28
		c-4.45-29.18-3.77-58.77-6.72-88.09c-1.41-14.02-1.08-28.3,1.24-42.37c0.21-1.3,0.43-2.73,0.13-3.97
		c-5.36-21.98-5.54-44.54-7.34-66.89c-0.77-9.58,0.07-19.28-1.5-28.85c-0.55-3.38-1.17-5.68-5.2-7.65
		c-12.86-6.3-23.22-14.91-28.57-29.54c-3.16-8.64-3.99-16.37-2.5-25.04c1.62-9.48,3.19-18.97,0.54-28.69
		c-1.55-5.69,0.8-11.55,0.91-17.38c0.32-17.17-1.58-34.27-1.11-51.45c0.36-12.99,1.53-25.92,2.17-38.89c13.33,0,26.67,0,40,0
		c-0.3,2.3-0.8,4.6-0.87,6.91c-0.42,14.55-2.94,28.72-7.03,42.68c-5.55,18.92-8.11,38.34-9,58c-0.19,4.22,1.08,7.84,4.35,11.33
		c0.89-4.83,0.39-8.99,0.89-13.13c1.12-9.42,3.1-18.68,4.38-28.06c1.27-9.26,0.76-18.69,3.13-27.89c2.11-8.19,3.36-16.59,5.17-24.86
		c0.58-2.68,0.67-5.99,3.67-7.25c3.75-1.58,3.56-4.4,2.98-7.45c-0.65-3.47-1.24-6.9,0.32-10.28c50.33,0,100.67,0,151,0
		c0.26,3.38-0.46,6.59-1.31,9.84c-1.02,3.94-0.59,7.59,3.21,10.14c1.53,1.03,2.97,2.31,3.45,4.15c3.01,11.53,7.84,22.68,7.58,34.92
		c-0.17,7.79,2.37,15.46,1.5,23.22c-0.87,7.82-0.76,15.19,4.23,21.8c0.63,0.84,0.37,2.3,0.77,3.38c0.42,1.13,0.02,2.78,1.97,3.27
		c2.44-2.71,3.28-6,3.39-9.57c0.43-14.19-0.15-28.39-2.76-42.29c-3.66-19.5-7.17-38.96-7.04-58.88c13,0,26,0,39,0
		c-0.15,16.65,0.75,33.32-0.96,49.93c-1.07,10.43-2.2,20.85-3.41,31.26c-0.58,4.99-0.77,9.94,0.05,14.93
		c0.32,1.93,0.62,4.21-0.08,5.92c-4.57,11.13-2.52,22.2,1.05,32.78c4.2,12.42-1.64,23.09-4.18,34.39c-0.19,0.85-1.08,1.79-1.9,2.2
		c-7.54,3.78-14.19,9.54-22.95,10.67c-2.46,0.32-3.39,1.71-3.52,4.02c-0.55,9.96-1.94,19.83-2.28,29.84
		c-0.51,15.1-0.07,30.24-2.51,45.31c-1.59,9.84-0.22,19.97,1.07,29.87c1.88,14.44,2.41,28.97,1.35,43.39
		c-1.14,15.42-0.31,30.85-1.53,46.25c-0.64,8.15-1.03,16.28-3.01,24.23c-1.02,4.09-1.35,8.44-0.72,12.36
		c1.5,9.3-0.06,18.24-1.43,27.29c-0.64,4.22-2.6,7.49-6.17,9.81c-2.32,1.51-3.83,3.07-0.31,5.01c2.22,1.23,2.6,3.3,2.28,5.61
		c-0.02,0.16-0.06,0.33-0.07,0.49c-0.3,4.92-3.5,9.06-4.08,13.75c-0.57,4.65,3.62,8.42,3.76,13.81c-4.35-6.97-11.78-5.87-18.03-7.66
		c-7.22-2.06-12.82,3.04-19.57,4.73 M351.87,598.21c0.92-2.2-2.84-13.12-4.74-14.36c-4.71-3.07-6.99-7.91-7.18-13.13
		c-0.49-13.41-1-26.75-0.12-40.29c1.57-24.14,5.81-48.38,1.27-72.71c-0.69-3.72-0.69-7.69-0.27-11.47
		c1.64-14.74-1.51-29.2-2.45-43.77c-1.51-23.42-3.65-46.8-6.45-70.11c-1.37-11.44-3.16-22.73-6.73-33.73
		c-4.89-15.07-9-30.33-10.64-46.16c-0.24-2.3-0.97-4.56-1.63-6.79c-0.42-1.4-0.87-3.08-2.85-2.92c-1.89,0.15-3.04,1.44-3.37,3.21
		c-0.44,2.28-0.8,4.6-0.89,6.92c-0.58,15.49-6,29.98-9.37,44.88c-2.81,12.41-4.57,24.87-5.37,37.51
		c-1.29,20.42-3.2,40.84-3.51,61.28c-0.18,12.12-0.45,24.25-0.57,36.38c-0.13,13.48-1.32,26.99-0.76,40.43
		c0.73,17.59-0.91,35.24,1.57,52.77c0.64,4.52-0.34,9.05-2.05,13.22c-1.73,4.23-1.37,8.14,0.45,12.06
		c3.89,8.37,5.47,17.06,4.05,26.23c-0.1,0.66,0.15,1.54-0.2,1.96c-5.34,6.4-0.34,11.22,2.4,16.4c0.78,1.46,1.47,2.98,2.06,4.53
		c0.3,0.78,0.21,1.72-0.57,2.26c-0.8,0.55-1.59,0.16-2.26-0.39c-5.19-4.23-11.74-4.93-17.82-6.84c-6.59-2.06-20.5,8.32-26.34,9.85
		 M394.18,331.28c7.69-12.07,5.1-24.04,0.23-35.97c-0.33-0.81-0.93-1.49-1.87-1.27c-0.9,0.2-1.12,1.08-1.37,1.9
		c-1.72,5.55-0.65,9.07,3.36,12.29C391.45,316.11,394.18,323.74,394.18,331.28z M413.68,260.5c0-1.49,0.06-2.98-0.02-4.46
		c-0.11-1.96-0.04-4.56-2.73-4.39c-2.48,0.16-1.9,2.82-1.84,4.45c0.22,5.75-0.69,11.17-3.63,16.21c-0.89,1.52-2.21,3.63-0.2,4.83
		c1.9,1.14,3.78-0.31,5.04-2.01C413.56,270.77,413.83,265.67,413.68,260.5z"/>
</g>
</svg>
