<?xml version="1.0" encoding="UTF-8"?>
<svg width="500px" height="500px" viewBox="0 0 500 500" version="1.1" xmlns="http://www.w3.org/2000/svg" xmlns:xlink="http://www.w3.org/1999/xlink">
    <!-- Generator: Sketch 59.1 (86144) - https://sketch.com -->
    <title>f-back</title>
    <desc>Created with Sketch.</desc>
    <g id="f-back" stroke="none" stroke-width="1" fill="none" fill-rule="evenodd">
        <g id="f-back-removebg-preview" transform="translate(183.723757, 1.000000)" stroke="#000000">
            <path d="M121.708515,0 C121.708515,1.32471166 122.014177,2.72890603 121.668646,3.94764076 C118.930982,13.7372599 121.801543,21.2086337 129.974665,27.4082843 C134.533008,30.8657818 134.612746,37.0389381 134.426691,42.1523251 C134.041292,53.1871733 137.403568,63.6788896 138.081339,74.4885368 C139.11793,91.0474326 140.433604,107.55334 140.260839,124.244707 C139.981756,151.321813 132.366798,177.02122 128.100827,203.329993 C126.479492,213.305072 125.48277,223.280151 125.735273,233.374454 C125.908038,239.905282 124.991054,246.184415 121.921149,252.09263 C119.874546,256.04027 119.303092,260.213112 120.897848,264.558166 C121.588908,266.42601 121.695225,268.413077 121.283247,270.426639 C117.801364,286.95904 118.492425,303.928597 115.887657,320.566975 C113.854344,333.615385 111.860899,346.690289 110.611674,359.818182 C109.349159,373.078546 108.139803,386.391898 108.325858,399.758239 C108.352437,402.063237 107.555059,403.573408 105.628063,404.580189 C104.750947,405.030591 103.780804,405.322028 102.877109,405.719441 C99.767336,407.110388 95.062807,405.759182 93.4148928,409.176939 C90.3981468,415.41633 88.0857512,422.238596 88.3515438,429.180085 C88.5110194,433.220455 91.0227594,437.168096 94.8501729,439.804272 C101.627884,444.467257 102.611317,455.634577 96.8967759,461.529543 C95.169124,463.317904 93.4016032,465.026782 92.2321158,467.278792 C88.059172,475.333039 81.7997562,479.214444 72.5368841,477.664532 C63.5530943,476.167607 55.2072066,475.200568 45.8645967,477.359848 C34.4089357,479.996024 23.1127502,469.981204 19.1391508,458.416471 C16.2420115,449.964811 20.534562,444.705705 24.9467191,439.049187 C26.9667429,436.465999 29.8505926,434.611402 31.4852171,431.630801 C32.5749667,429.630487 32.6414149,428.305775 30.4752052,426.67638 C26.2225236,423.483824 26.3819992,421.9869 30.4087571,418.781098 C33.3989238,416.396617 33.0135245,410.938805 29.6113793,408.726537 C28.3754437,407.918462 26.9534533,407.375331 25.6112006,406.752716 C20.6807479,404.460965 19.205599,401.215421 19.670736,395.346949 C21.0395679,378.390639 19.9498182,361.368095 17.73045,344.504515 C15.1256826,324.779558 14.4612011,305.054602 15.8167433,285.236915 C16.1091152,280.997838 13.8498781,277.235657 13.9429055,273.062815 C13.9694848,271.605632 13.1322381,269.949743 13.996064,268.691267 C17.9696634,262.915524 15.4579233,257.629924 12.9328936,252.357572 C11.6836684,249.74789 10.9527387,247.058725 11.2185313,244.210595 C13.5707959,219.570958 8.08217867,195.633418 4.83950895,171.470678 C2.88593334,156.925344 0.54695846,142.38001 1.30446737,127.609475 C1.61012886,121.648272 0.666565129,115.753305 0.3874829,109.831844 C-0.39660527,93.2067126 3.13843631,77.005489 5.53056971,60.7115355 C5.88938972,58.2343247 6.2349201,55.8630908 5.79636231,53.3593858 C4.48068894,45.8217764 6.12860306,38.5756036 8.29481274,31.4221607 C8.87955646,29.5013287 9.92943723,27.6069911 11.7634062,26.7194342 C19.8169219,22.8512762 20.8003546,15.5521149 21.1990435,7.94826998 C21.3452294,5.31209377 21.2389124,2.66267044 21.252202,0.0132471166 C54.7287799,0 88.2186475,0 121.708515,0 Z M68.7759188,133.636913 C68.6696018,134.458234 68.5367055,135.43852 68.4038092,136.418807 C66.7293158,148.844602 63.6195424,161.018703 62.4101861,173.550475 C60.8420097,189.990147 59.6592327,206.323842 60.7224031,222.922479 C61.6128083,236.977669 63.4334876,251.31105 60.8287201,265.273511 C58.7954067,276.175888 58.2904008,287.197489 57.7455259,298.060124 C57.3202578,306.57802 58.5163245,315.321117 58.1973734,324.077461 C57.6259193,339.921013 57.6923674,355.804306 58.1840837,371.647857 C58.4232971,379.649116 58.3036904,387.782845 60.6426653,395.66488 C61.8121527,399.572779 61.2406986,403.043524 56.8551207,405.216051 C53.359948,406.96467 53.2669206,416.56883 56.4298526,418.794345 C62.5032135,423.04667 67.765907,420.940378 69.1613181,413.654464 C69.5068485,411.87935 69.7061929,410.064495 69.8789581,408.262887 C70.2510678,404.434471 69.6796137,401.308151 65.6661454,399.162118 C62.091235,397.241286 62.1311038,393.41287 63.3005913,389.995114 C64.0049417,387.955058 64.6162647,385.928249 65.0016639,383.821957 C66.4635232,375.76771 68.483547,367.845935 68.5499951,359.500251 C68.589864,353.976204 70.3573848,348.491897 71.0484456,342.914861 C72.6299115,330.171135 73.1349175,317.334679 75.3542857,304.590953 C76.8427242,296.05981 73.5734753,286.972288 74.1980879,277.884766 C74.4505908,274.149079 72.5235945,269.896754 72.9222834,265.763654 C74.6499353,247.376656 73.653213,228.84394 76.4971939,210.496683 C77.4939161,204.03209 78.3843213,197.395285 77.7464191,190.771727 C75.846002,170.609615 73.905716,150.447504 71.8989819,130.298639 C71.752796,128.828209 72.5501738,126.099303 70.4637018,126.20528 C68.0981477,126.324504 68.2177544,129.013669 68.337361,131.013983 C68.4436781,131.848552 68.6297329,132.656626 68.7759188,133.636913 Z" id="Shape"></path>
        </g>
    </g>
</svg>