<?xml version="1.0" encoding="UTF-8"?>
<svg width="500px" height="500px" viewBox="0 0 500 500" version="1.1" xmlns="http://www.w3.org/2000/svg" xmlns:xlink="http://www.w3.org/1999/xlink">
    <!-- Generator: Sketch 59.1 (86144) - https://sketch.com -->
    <title>f-front</title>
    <desc>Created with Sketch.</desc>
    <g id="f-front" stroke="none" stroke-width="1" fill="none" fill-rule="evenodd">
        <g id="f-front-removebg-preview" transform="translate(172.000000, 0.000000)" stroke="#000000">
            <path d="M123,0 C121.7,7.97 122.25,15.79 126.9,22.55 C129.02,25.63 131.7,28.07 132.54,32.09 C135.66,47 139.08,61.8 141.38,76.92 C144.68,98.63 140.35,119.74 139.22,141.11 C138.01,164.14 133.14,186.57 129.27,209.19 C127.45,219.84 126.62,230.65 125.36,241.4 C125.26,242.22 125.22,243.08 125.32,243.9 C126.08,250 119.67,254.66 121.6,260.76 C123.44,266.61 122.35,272.14 121.62,277.91 C120.67,285.49 120.11,293.16 120.05,300.79 C119.97,313.16 118.69,325.4 117.04,337.61 C115.27,350.74 116.23,363.9 116.72,377.03 C116.89,381.48 116.28,385.91 116.98,390.43 C117.59,394.42 113.83,395.89 110.69,396.06 C106.26,396.29 104.67,398.64 103.73,402.42 C102.16,408.72 100.07,414.85 102.07,421.54 C102.99,424.62 103.88,427.07 107.42,427.88 C109.14,428.28 110.85,429.28 112.26,430.4 C114.38,432.09 114.46,434.43 112.09,435.76 C107.47,438.35 107.32,441.86 109.4,445.96 C110.4,447.92 108.12,449.11 109.2,451.95 C111.13,456.99 114.32,460.19 118,463.01 C121.61,465.78 121.73,469.17 121.38,472.74 C121.01,476.51 118.54,479.45 114.87,480.2 C104.03,482.42 93.66,480.95 84.15,474.98 C81.83,473.53 81.83,471.02 82.04,468.68 C82.43,464.3 81.46,460.52 78.35,457.23 C74.25,452.89 75.4,447.47 76.23,442.48 C77.41,435.42 78.33,428.41 78.48,421.22 C78.59,415.95 81.69,411.15 82.3,405.77 C83.04,399.33 83.69,393.29 77.18,388.97 C74.17,386.97 73.7,383.64 74.55,380 C78.63,362.67 78.59,345.1 78.47,327.37 C78.4,317.41 75.97,307.14 79.57,297.18 C80.18,295.48 79.66,293.17 79.13,291.29 C77.82,286.6 77.05,282.24 78.7,277.19 C79.72,274.07 78.23,270 77.43,266.45 C74.26,252.35 76.11,238.17 77.38,224.16 C78.86,207.81 78.44,191.63 77.43,175.3 C76.43,159.17 72.96,143.37 72.06,127.26 C71.95,125.22 71.42,123.14 69.25,120.6 C68.24,138.93 65.44,155.93 63.1,172.97 C61.16,187.14 62.22,201.11 62.62,215.26 C62.96,227.19 65.34,239.04 64.24,251.01 C64.15,251.97 64.28,253.06 64.68,253.93 C66.72,258.45 65.75,262.72 63.79,266.92 C62.48,269.73 61.68,272.6 62.78,275.61 C64.28,279.72 63.58,283.53 61.31,287.05 C59.16,290.39 59,293.79 59.89,297.56 C62.5,308.66 62.3,320.06 63.05,331.34 C64.18,348.3 65.76,365.18 69.08,381.86 C69.81,385.55 69.16,388.57 65.69,390.38 C62.73,391.92 61.95,394.28 62.14,397.39 C62.57,404.55 62.79,411.73 66.58,418.17 C68.85,422.03 68.31,426.23 67.88,430.37 C67.69,432.21 67.03,434.25 68.31,435.68 C73.98,441.99 71.58,450.24 70.12,456.04 C68.59,462.1 66.14,467.66 65.94,474.4 C65.77,480.1 59.86,483.03 54.4,483.88 C47.81,484.9 41.09,484.71 34.67,482.3 C26.57,479.26 23.86,471.88 28.97,464.84 C34.23,457.6 37.28,449.75 38.5,441.01 C38.75,439.22 39.16,437.26 40.13,435.81 C46.13,426.84 44.45,417.48 41.89,408.03 C41.46,406.42 40.69,404.89 40.42,403.26 C39.54,397.8 37.15,394.26 31.05,393.53 C26.97,393.04 25.31,390.39 25.45,385.71 C26.03,367.22 24.68,348.79 22.5,330.41 C20.91,317.05 18.43,303.74 19.72,290.18 C20.48,282.22 18.65,274.66 16.37,267.14 C15.04,262.74 14.42,258.39 17.77,254.36 C19.26,252.57 19.29,249.93 18,248.21 C12.37,240.72 12.48,231.86 12.15,223.31 C11.24,199.9 6.45,177.07 2.69,154.08 C-0.79,132.85 0.49,111.54 1.34,90.26 C1.7,81.15 0.97,71.9 3.53,62.94 C4.76,58.63 6.02,54.3 5.92,49.73 C5.91,49.09 5.99,48.21 6.4,47.83 C12.07,42.47 10.31,34.71 12.66,28.28 C13.62,25.67 14.56,23.81 17.05,22.15 C22.63,18.43 23.79,12.18 24.62,6 C24.88,4.03 24.86,2.01 24.97,0.02 C57.67,0 90.33,0 123,0 Z" id="Path"></path>
        </g>
    </g>
</svg>