<?xml version="1.0" encoding="UTF-8"?>
<svg width="408px" height="612px" viewBox="0 0 408 612" version="1.1" xmlns="http://www.w3.org/2000/svg" xmlns:xlink="http://www.w3.org/1999/xlink">
    <!-- Generator: Sketch 59.1 (86144) - https://sketch.com -->
    <title>g-back</title>
    <desc>Created with Sketch.</desc>
    <g id="g-back" stroke="none" stroke-width="1" fill="none" fill-rule="evenodd">
        <g id="g-back-removebg-preview" transform="translate(71.000000, 0.000000)" stroke="#000000">
            <path d="M238.697846,0.0267008987 C244.720273,23.8038511 242.329997,48.0482671 242.623774,72.1458282 C242.677188,76.8318359 242.984319,81.4644418 243.758821,86.0703468 C246.068976,99.7545574 243.157914,113.545572 244.693566,127.256483 C245.120878,131.048011 244.693566,134.89294 245.50813,138.697818 C246.109037,141.541464 245.882027,144.425161 244.025891,146.814891 C240.727577,151.087035 238.711199,156.053402 236.30757,160.792812 C234.852039,163.663158 233.076023,166.07959 230.472091,168.108858 C226.372568,171.286265 223.207789,175.424904 220.243312,179.683697 C219.054851,181.392555 218.320409,183.488576 215.395993,183.261618 C213.085838,183.074712 213.860341,185.451092 213.579917,186.706034 C208.892839,207.185623 206.168726,227.985623 203.885278,248.839025 C202.269505,263.564571 200.613671,278.276766 199.091372,293.015662 C197.635841,307.087035 199.46527,320.958152 202.055849,334.735816 C206.22214,356.817459 205.073739,378.752247 201.508355,400.793839 C197.462246,425.759179 193.376075,450.73787 191.746949,476.036972 C191.346344,482.21823 190.024348,488.265983 186.004945,493.325804 C184.616181,495.074712 184.616181,496.850322 185.470805,498.919642 C187.754253,504.51348 187.687485,509.86701 183.507841,514.766625 C180.970676,517.730425 180.262941,521.294995 181.211039,525.099873 C184.26899,537.395637 185.684461,549.98511 187.847727,562.44108 C188.04803,563.589218 188.234979,564.737357 188.381867,565.898846 C190.104468,579.663159 188.181565,581.986137 174.414109,582.747113 C172.918517,582.827216 171.409572,582.893968 169.91398,582.800515 C166.121587,582.560207 164.305511,584.028756 164.666056,588.033891 C164.812944,589.702697 165.186842,592.17253 162.355901,592.065727 C160.019039,591.972274 160.205988,589.769449 160.259402,588.207447 C160.40629,584.068808 159.151061,582.092941 154.41057,581.892684 C145.917745,581.518872 142.178766,576.806163 143.647651,568.061619 C145.490433,557.11425 145.51714,546.246985 144.609103,535.232864 C144.061609,528.611041 146.091341,522.389732 149.483129,516.662389 C151.365972,513.471632 152.127122,510.521182 149.656725,506.969963 C147.466751,503.832607 148.588445,499.827472 148.695273,496.209501 C149.576604,469.268294 150.538055,442.340438 145.944452,415.546086 C142.579371,395.880874 143.060097,376.122209 144.809405,356.283441 C146.171462,340.836971 145.837624,325.323749 143.086804,309.970732 C139.78849,291.573813 138.266191,272.976637 137.318093,254.379461 C135.929329,227.077793 132.23041,200.056483 128.825269,172.981772 C127.930584,165.825931 127.970645,158.710142 128.451371,151.567651 C128.544845,150.112452 129.265934,148.403595 126.80889,148.283441 C124.939401,148.189988 123.52393,148.85751 123.056558,150.820026 C122.909669,151.460848 122.856255,152.141721 122.869609,152.795893 C123.590698,175.61181 118.983741,197.826958 115.498478,220.188961 C113.642342,232.084211 115.164641,244.139667 114.643854,256.11502 C113.695756,277.889603 112.961314,299.690886 109.502758,321.278563 C107.446319,334.068293 108.514599,346.964828 110.090312,359.621054 C113.068142,383.57176 111.61261,407.108602 106.45816,430.578692 C103.774107,442.794353 102.972897,455.290373 101.824497,467.719642 C101.437245,471.884982 102.038153,475.943518 103.066372,480.055457 C105.34982,489.213865 107.446319,498.425675 104.895801,507.984597 C104.121298,510.881644 105.937374,513.538384 107.299431,515.954815 C111.666024,523.738127 112.160104,531.84185 111.198652,540.599745 C110.277261,548.970476 109.783181,557.554815 111.973155,565.925547 C112.667537,568.595637 112.507295,571.158923 111.866327,573.802312 C110.637805,578.848782 108.167408,582.266497 102.37199,582.199745 C98.3792943,582.159693 96.2293812,583.975354 96.4964512,588.327601 C96.6166326,590.276767 97.0572981,593.387421 93.6788632,592.960207 C90.4473168,592.559693 91.5289501,589.716048 91.8894945,587.726831 C92.5571694,584.122209 91.1550522,582.840566 87.6163753,583.027473 C83.957517,583.214379 80.2719517,583.24108 76.5997399,583.094225 C70.1633541,582.813865 66.6914448,579.68986 67.3591197,573.361747 C68.7612369,559.984597 70.724201,546.647498 72.7806396,533.350451 C73.9156869,526.047755 73.2613655,519.452633 67.9066131,513.872145 C66.6780913,512.603852 66.1573049,510.988448 66.3041934,509.27959 C67.6395431,493.833121 62.5118001,479.334533 59.6942121,464.502183 C54.2726921,435.825418 51.2280947,406.854943 49.4253725,377.777665 C48.4372137,361.917331 51.1212667,346.217202 53.2711798,330.557125 C55.3142649,315.698075 53.6183708,301.025931 51.9625371,286.273685 C48.0232553,251.162003 40.6254177,216.624391 35.3774932,181.726316 C35.0703628,179.710398 35.1504837,177.601027 32.1993608,177.774583 C31.9189373,177.787934 31.5450394,177.547626 31.3313835,177.320668 C20.9957764,166.226445 8.48354927,156.961233 2.07387048,142.582799 C0.912116197,139.966111 0.698460237,137.215918 0.845348709,134.30552 C1.47296309,121.889602 4.01012761,109.673941 2.52788939,97.0043648 C1.69997255,89.968678 4.27719756,82.5591786 5.18523539,75.2965342 C6.76094809,62.8539154 5.71937529,50.331194 6.38705016,37.8618743 C7.06807854,25.0854943 8.02953035,12.2690629 12.3293565,0.0133504493 C23.6798294,0.0133504493 35.0303023,0.0133504493 46.3807751,0.0133504493 C46.1938262,1.82901156 46.0602912,3.64467267 45.8065747,5.44698333 C42.0141814,32.8554558 33.6148315,59.3160464 28.9411074,86.550963 C26.3638824,101.596919 27.3253342,107.884981 35.6445631,119.179461 C38.6090396,105.041335 41.8005255,91.1168167 41.4800415,76.6449296 C41.3999206,73.2138641 41.3197996,69.7160464 42.0943024,66.2449296 C43.9370851,57.9275996 48.2502648,49.9039796 45.3525558,40.9458281 C45.1656068,40.3717588 45.4059698,39.6241336 45.5528583,38.983312 C47.9431343,28.850321 53.4981893,20.145828 58.5458113,11.2944801 C60.6289569,7.63645701 62.8189305,4.21874199 63.4198379,0.0133504493 C102.812655,0.0133504493 142.205473,0.0133504493 181.598291,0.0133504493 C183.574608,6.52836972 186.645913,12.122208 191.079274,17.649294 C198.316869,26.6608473 201.882253,37.6082158 199.411856,49.650321 C199.224907,50.571502 199.371796,51.7062902 199.759047,52.5740694 C205.501051,65.1768936 206.075251,78.9679078 209.146556,92.1848526 C210.80239,99.327343 211.496771,106.736842 214.421187,113.999487 C219.215093,108.45905 220.790806,102.851862 220.04301,96.029782 C218.240288,79.421823 213.566564,63.4413352 210.00118,47.2205393 C206.569331,31.6272145 204.753255,15.7935816 202.643403,0 C214.66155,0.0267008987 226.679698,0.0267008987 238.697846,0.0267008987 Z" id="Path"></path>
        </g>
    </g>
</svg>