<?xml version="1.0" encoding="UTF-8"?>
<svg width="408px" height="612px" viewBox="0 0 408 612" version="1.1" xmlns="http://www.w3.org/2000/svg" xmlns:xlink="http://www.w3.org/1999/xlink">
    <!-- Generator: Sketch 59.1 (86144) - https://sketch.com -->
    <title>g-front</title>
    <desc>Created with Sketch.</desc>
    <g id="g-front" stroke="none" stroke-width="1" fill="none" fill-rule="evenodd">
        <g id="g-front-removebg-preview" transform="translate(75.000000, -1.000000)" stroke="#000000">
            <path d="M233,1 C239.02,22 239.53,43.69 241.13,65.26 C241.75,73.56 243.2,81.79 245.27,89.87 C245.85,92.15 246.47,94.46 246.11,96.77 C244.34,108.1 245.67,119.41 247.08,130.57 C248.3,140.21 243.19,147.07 239.18,154.62 C235.99,160.63 231.68,165.6 225.64,168.87 C221.13,171.31 218.56,176.32 213.45,177.99 C212.4,178.34 212.41,179.57 212.3,180.58 C209.41,207.26 202.53,233.28 199.01,259.85 C196.7,277.33 193.36,294.71 192.6,312.36 C192.12,323.68 193.67,334.96 195.4,346.15 C197.83,361.91 197.7,377.71 196.06,393.48 C193.19,421.12 189.79,448.71 184.37,476 C183.01,482.85 180.19,489.36 179.76,496.42 C179.65,498.24 179.16,500.1 179.36,501.88 C179.97,507.29 179.78,512.02 175.6,516.57 C172.8,519.62 172.44,524.14 173.6,528.84 C176.16,539.2 176.14,549.96 177.17,560.56 C177.88,567.83 179.83,574.95 179.37,582.38 C179.12,586.39 177.72,589.38 174.75,591.88 C163.81,601.08 149.42,601.64 138.09,593.04 C133.66,589.68 132.5,584.43 133.46,579.5 C136.89,561.98 135.71,544.33 135.83,526.7 C135.87,521.14 136.46,515.65 139.33,510.78 C141.1,507.78 140.66,504.63 140.53,501.53 C140.08,490.99 142.15,480.64 142.68,470.18 C143.8,448.42 141.46,426.95 137.47,405.61 C135,392.37 135.57,379.04 136.91,365.77 C138.87,346.33 139.63,327.02 136.79,307.52 C133.98,288.23 133.1,268.68 133.82,249.21 C134.53,230.04 131.34,211.42 128.33,192.68 C126.4,180.69 124.57,168.66 124.58,156.45 C124.58,154.63 124.38,152.79 124.1,150.98 C123.88,149.56 122.68,149.2 121.44,149.26 C119.86,149.34 119.71,150.42 119.78,151.74 C120.86,173.78 114.65,194.94 111.84,216.51 C109.99,230.73 109.52,245.04 108.27,259.29 C106.63,278.03 105.01,296.77 101.9,315.33 C99.34,330.57 99.4,345.9 100.53,361.18 C102.02,381.39 101.57,401.46 97.94,421.39 C95.72,433.55 94.92,445.83 94.36,458.13 C94.07,464.62 94.18,471.12 93.28,477.57 C92.07,486.32 96.12,494.74 95.3,503.32 C94.51,511.6 100.29,517.9 100.53,525.83 C100.89,537.29 102.4,548.71 102.87,560.17 C103.15,567.05 104.65,573.69 105.48,580.46 C106.39,587.81 103.61,592.95 97.16,596.53 C85.75,602.85 73.92,601.61 64.07,592.71 C60.93,589.87 59.51,586.26 59.62,582 C60.03,565.02 61.12,548.08 63.1,531.2 C63.76,525.63 65.22,520.07 60.88,515.05 C59.85,513.86 59.67,511.51 59.83,509.76 C60.91,498.22 57.51,487.24 55.05,476.32 C50.69,456.95 48.1,437.38 45.64,417.75 C44.34,407.35 42.97,396.96 41.66,386.56 C39.19,366.99 41.67,347.68 44.89,328.42 C47.08,315.33 46.74,302.23 45.38,289.1 C43.43,270.23 41.68,251.34 39.64,232.48 C38.02,217.41 35.25,202.51 32.21,187.67 C31.87,186.02 31.07,184.68 29.91,183.36 C24.55,177.25 20.04,170.43 13.77,165.04 C10.48,162.21 9.51,157.57 7.25,153.92 C-0.61,141.19 1.21,127.17 0.63,113.27 C0.04,98.91 0.89,84.76 2.6,70.56 C3.42,63.76 2.21,56.93 1.85,50.12 C0.98,33.56 2.28,17.18 5.93,1 C18.26,1 30.6,1 42.93,1 C40.73,15.44 38.89,29.95 35.75,44.22 C32.42,59.31 28.31,74.23 25.59,89.46 C24.03,98.17 26.96,106.19 33.34,110.07 C33.8,108.22 34.34,106.5 34.64,104.74 C36.39,94.76 38.13,84.78 39.79,74.78 C40.85,68.38 43.86,61.97 43.56,55.83 C43.09,46.28 45.23,37.4 47.01,28.35 C47.95,23.58 49.41,18.77 55.78,18.55 C56.53,18.52 57.81,17.98 57.91,17.5 C59,11.93 63.5,7.19 61.95,0.99 C85.95,0.99 109.95,0.99 133.95,0.99 C133.69,2.13 133.35,3.25 133.18,4.4 C131.86,13.19 139.38,21.7 148.14,20.76 C159.38,19.55 170.57,17.89 181.75,16.19 C188.94,15.1 191.79,17 193.86,24.65 C196.97,36.11 199.22,47.81 201.79,59.42 C202.69,63.48 203.58,67.54 204.27,71.63 C207,87.8 209.65,103.99 212.34,120.17 C214.34,114.87 217.51,110.4 219.92,105.55 C221.27,102.84 221.85,99.87 221.45,96.81 C220.72,91.2 219.52,85.69 218.25,80.17 C213.54,59.69 204.55,40.53 200.11,19.99 C198.74,13.65 197.34,7.32 195.95,0.98 C208.33,1 220.67,1 233,1 Z" id="Path"></path>
        </g>
    </g>
</svg>