<?xml version="1.0" encoding="UTF-8"?>
<svg width="408px" height="612px" viewBox="0 0 408 612" version="1.1" xmlns="http://www.w3.org/2000/svg" xmlns:xlink="http://www.w3.org/1999/xlink">
    <!-- Generator: Sketch 59.1 (86144) - https://sketch.com -->
    <title>h-back</title>
    <desc>Created with Sketch.</desc>
    <g id="h-back" stroke="none" stroke-width="1" fill="none" fill-rule="evenodd">
        <g id="h-back-removebg-preview" transform="translate(86.164835, 0.000000)" stroke="#000000">
            <path d="M226.995696,0.0265896688 C233.149592,25.0740577 233.388836,50.5602552 233.1363,76.1528114 C232.963513,93.3829168 233.588206,110.666202 233.42871,127.856422 C233.282505,143.491148 237.123705,157.969222 240.31363,172.792963 C240.738953,174.787188 241.323772,176.861182 240.114259,178.58951 C235.954067,184.505712 234.651514,191.751397 230.916645,197.853725 C229.853337,199.595349 228.922942,201.483215 226.809617,201.921945 C220.961423,203.14507 215.737922,206.442189 209.637192,206.841034 C207.603616,206.973982 205.835866,207.359532 204.147865,205.644498 C201.848461,203.317902 200.545909,205.072821 199.961089,207.239879 C199.017403,210.76301 198.326253,214.33932 197.60852,217.915631 C191.188798,249.809938 186.138085,281.837194 185.965297,314.502602 C185.845675,337.196885 186.48366,359.864577 187.932417,382.518975 C188.610276,393.154843 187.307724,403.710941 186.656447,414.293629 C185.805801,428.000604 184.144382,441.667694 183.24057,455.374668 C182.642459,464.548104 179.160126,473.176451 178.61518,482.296707 C178.030361,492.134885 175.717666,501.72046 177.153132,511.917598 C177.884156,517.089289 175.425256,523.311272 174.694232,529.134409 C174.268909,532.537887 174.308783,535.662173 175.531587,538.866228 C179.040503,548.026369 182.177262,557.18651 181.472821,567.330468 C181.153828,572.050134 183.546271,576.650147 183.33361,581.555941 C183.0412,588.216653 180.077229,591.6999 173.458136,592.338052 C171.650513,592.510885 169.803015,592.524179 167.9821,592.457705 C163.170631,592.284872 158.23954,591.726489 159.382596,599.238071 C159.688297,601.205706 158.159792,602.269293 156.17938,602.109755 C154.252135,601.963512 153.707189,600.594144 153.999599,598.9057 C154.943285,593.375049 152.271723,591.806258 147.22101,592.391231 C142.183588,592.976204 139.671523,590.450185 138.66138,585.544391 C137.598072,580.346111 138.023396,575.25419 139.179743,570.255332 C140.827871,563.102711 139.179743,556.043154 139.060121,548.957007 C138.967082,543.439651 139.006956,538.081833 141.465855,532.923437 C144.669071,526.196251 142.356376,519.229757 141.771556,512.356328 C141.691808,511.37251 140.987367,510.308924 141.21332,509.471349 C144.403244,497.692126 138.927207,486.697298 137.97023,475.303625 C135.31196,443.781572 132.015705,412.312699 132.308115,380.617814 C132.534068,356.102139 133.065722,331.559875 128.373875,307.296802 C128.121339,306.007203 128.174505,304.65113 128.161214,303.321647 C127.82893,279.936033 127.390315,256.563714 127.230819,233.1781 C127.084614,212.424864 124.798502,191.817871 123.628863,171.131108 C123.296579,165.121843 123.854816,159.218937 123.947855,153.262851 C123.974438,151.614291 123.921273,149.939142 123.628863,148.317173 C123.416201,147.147227 122.51239,146.243178 121.249711,146.057051 C119.800954,145.844333 119.256009,146.974394 118.737646,148.037981 C117.687629,150.191744 117.381928,152.451866 117.847125,154.818347 C120.332608,167.182543 119.149678,179.586623 118.033204,191.964114 C115.600887,218.912743 114.484414,245.848078 117.089518,272.863181 C119.096512,293.669597 120.399065,314.502602 115.733801,335.189365 C115.414808,336.625207 115.361643,338.154113 115.361643,339.643134 C115.308478,359.877872 113.806555,380.086021 114.391374,400.320759 C114.763532,413.336401 112.038805,426.046263 110.80271,438.902368 C109.420409,453.260789 108.34381,467.566031 110.124851,481.964337 C111.095119,489.848173 108.676094,497.785189 110.271056,505.708911 C110.629922,507.477124 109.659654,509.205452 108.210896,510.561525 C106.6691,511.997367 103.1336,511.851124 103.346262,514.244194 C103.864625,520.107216 101.046858,526.289314 104.436153,531.846555 C113.141987,546.138502 113.554019,562.876699 118.28574,578.338591 C119.322465,581.742069 118.019913,585.23861 116.943314,588.575614 C116.105959,591.181401 114.085673,592.11204 111.586899,592.231693 C108.436849,592.377936 105.273508,592.577359 102.123458,592.484295 C98.189218,592.377936 96.0626019,593.614356 96.8600829,598.001651 C97.2455321,600.102235 97.6708553,602.761202 94.5208052,602.987214 C91.3574638,603.213226 91.3973379,600.394721 91.4372119,598.347317 C91.5036687,594.305687 89.5099661,593.401638 85.828262,593.441523 C73.9059205,593.574471 73.6400935,593.481407 72.6299509,581.675595 C72.0717141,575.2276 71.1014455,568.965733 69.6925624,562.624097 C68.0577263,555.258759 70.2375078,547.800357 72.1647536,540.581261 C72.9622346,537.603219 73.3078097,534.877777 72.2046276,531.85985 C70.4634607,527.180068 71.0482801,522.393928 72.4039979,517.674262 C73.241353,514.722809 73.8261724,511.891009 71.0748628,509.41817 C69.7988932,508.274814 69.5596489,506.480011 69.7058537,504.778272 C70.7691618,492.414076 68.0178522,480.46202 66.2501026,468.337131 C63.7912027,451.465986 62.2361147,434.448598 60.4949478,417.471095 C59.63101,409.06876 58.567702,400.59995 58.7803636,392.197615 C59.1525214,377.294105 59.0727733,362.364006 60.5746959,347.500381 C62.8209341,325.391072 61.3588856,303.4413 56.8797004,281.717541 C52.3340585,259.621526 47.309928,237.618575 41.1427414,215.921405 C38.9230858,208.104043 40.0528506,209.061271 33.0881829,210.696536 C25.8045228,212.411569 19.1854302,209.805782 12.7125425,207.572249 C8.79159411,206.216176 8.53905845,201.057781 6.97067908,197.50806 C5.24280351,193.586084 4.23266087,189.358326 1.85350911,185.688952 C0.524374059,183.641548 0.697161616,181.341541 1.24210699,178.961766 C2.78390365,172.1814 3.86050305,165.281381 5.62825267,158.554195 C8.61880655,147.213701 6.38585966,135.793439 6.59852127,124.41306 C6.97067908,104.151733 4.36557437,84.0632379 2.86365176,63.8949741 C1.25539834,42.5035856 2.67757285,21.1387867 6.67826937,0 C18.9727686,0 31.2672679,0 43.5617672,0 C44.2529174,12.8693997 42.11301,25.526082 40.6642528,38.3157127 C42.2459235,33.5295723 43.2029007,28.5705991 46.3928248,24.5422643 C46.6453605,24.2098934 46.5390297,23.5850362 46.5523211,23.0798325 C46.8713135,15.1029319 49.9814895,7.71100395 51.5232862,0 C55.1784076,0 58.833529,0 62.4886504,0 C61.903831,1.87457165 63.8310768,2.87168423 63.76462,5.11851124 C63.4722103,15.4087131 65.6121178,16.9642087 76.2186155,16.937619 C85.1636944,16.9243242 94.1220647,17.0705674 103.067144,17.1503364 C114.125547,17.256695 125.17066,17.8815523 136.268937,17.3364641 C150.982462,16.618543 165.789027,15.6746098 180.38293,18.5994733 C184.343752,19.3971634 186.19125,19.2509202 184.556414,14.6376127 C184.170965,13.5474363 183.373484,11.7260439 185.234273,11.3537886 C186.68303,11.0613022 187.321015,12.7364514 187.786212,13.972871 C188.703315,16.459005 188.384323,19.343984 190.271695,21.5642214 C189.660293,14.3451263 187.414054,7.32545375 188.078622,0.0132948344 C201.077563,0.0265896688 214.036629,0.0265896688 226.995696,0.0265896688 Z M30.2039599,167.687746 C25.3526169,176.781413 27.7716427,185.223633 29.526101,193.772211 C30.1906685,197.029446 32.0248749,196.697075 34.1780737,196.457768 C37.3547065,196.098807 35.5470828,193.85198 35.2413817,192.735214 C33.0217262,184.691839 30.6027004,176.714939 30.2039599,167.687746 Z M209.584027,164.643229 C208.148561,171.702786 206.620056,178.762343 205.330795,185.84849 C205.051677,187.350806 203.057974,189.757171 205.809283,190.475092 C207.989065,191.04677 209.078956,188.932892 209.703649,186.819013 C211.896722,179.546739 212.202423,172.221285 209.584027,164.643229 Z" id="Shape"></path>
        </g>
    </g>
</svg>