<?xml version="1.0" encoding="UTF-8"?>
<svg width="408px" height="612px" viewBox="0 0 408 612" version="1.1" xmlns="http://www.w3.org/2000/svg" xmlns:xlink="http://www.w3.org/1999/xlink">
    <!-- Generator: Sketch 59.1 (86144) - https://sketch.com -->
    <title>h-front</title>
    <desc>Created with Sketch.</desc>
    <g id="h-front" stroke="none" stroke-width="1" fill="none" fill-rule="evenodd">
        <g id="h-front-removebg-preview" transform="translate(109.000000, 14.000000)" stroke="#000000">
            <path d="M185.886505,118.839242 C185.166505,136.199242 183.27,150.879548 183.27,174.348598 C183.27,180.980198 178.61,189.57 177.82,192.63 C171.31,217.98 165.39,243.48 161.42,269.33 C158.43,288.83 159.62,308.51 162.27,328.07 C165.83,354.37 166.09,380.72 164.25,407.21 C162.84,427.5 159.94,447.57 157.35,467.71 C156.68,472.9 157.72,478.32 157.97,483.63 C158.1,486.32 158.1,488.97 156.09,491.16 C154.99,492.36 154.71,493.96 155.21,495.4 C158.69,505.38 156.67,516.16 160.01,526.24 C162.99,535.24 162.58,544.57 160.66,553.9 C159.19,561.02 161.36,568.15 161.62,575.28 C161.81,580.31 160.12,583.66 155.99,586.01 C149.26,589.82 142.05,592.42 134.47,593.82 C128.21,594.97 122.67,592.53 117.38,589.53 C115.23,588.31 115.22,586.09 114.91,583.87 C113.7,575.31 115.3,567.03 116.59,558.63 C118.58,545.64 118.15,532.39 120.62,519.42 C122.07,511.82 124.51,504.45 125.34,496.68 C125.69,493.41 125.33,491.47 122.12,490.63 C118.42,489.67 117.52,487.42 118.39,483.85 C119.56,479.03 117.49,474.28 117.75,469.44 C119.26,441.82 113.59,414.77 111.35,387.44 C110.38,375.66 109.5,363.87 109.1,352.06 C108.35,330.22 105.31,308.63 102.49,287.01 C101.95,282.9 102,278.7 101.98,274.54 C101.87,250.06 102.21,225.58 101.61,201.12 C101.27,187 99.59,172.9 98.28,158.82 C97.48,150.15 97.61,141.53 98.29,132.88 C98.38,131.72 98.63,130.57 98.68,129.41 C98.73,128.23 98.66,126.89 97.19,126.62 C95.53,126.32 94.69,127.49 94.49,128.91 C94,132.36 93.37,135.84 93.3,139.31 C92.89,159.63 93.05,179.95 92.45,200.28 C92.07,213.41 93.36,226.57 93.49,239.72 C93.71,261.17 94.49,282.58 92.64,304.08 C90.9,324.29 91.68,344.7 92.7,365.01 C93.4,378.99 93.33,392.97 92.59,406.96 C92.06,416.93 92.44,426.96 91.92,436.93 C91.19,450.87 90.38,464.82 87.67,478.58 C86.48,484.61 89.15,490.69 87.7,496.77 C85.88,504.37 90.79,510.87 91.3,518.12 C92.18,530.56 93.21,542.99 94.29,555.41 C94.89,562.37 97.44,569.01 97.34,576.13 C97.25,582.61 94.72,587.18 89.12,590.46 C78.91,596.45 64.21,595.69 55.19,588.4 C52.56,586.28 51.74,583.13 50.94,580.1 C50.36,577.87 49.91,575.44 50.15,573.18 C52.23,553.56 49.36,533.56 54.79,514.19 C56.37,508.54 53.3,502.66 54.99,496.87 C55.15,496.31 54.05,495.19 53.32,494.6 C51.27,492.92 50.56,490.75 51.23,488.34 C53.93,478.54 51.15,468.89 48.96,459.76 C45.03,443.34 43.15,426.71 40.8,410.09 C36.67,380.92 37.84,351.57 37.82,322.27 C37.8,287.05 33.25,252.54 22.44,218.93 C20.86,214.03 19.86,208.93 18.69,203.9 C17.99,200.9 18.8591267,187.98 15.5691267,188.09 C11.7361812,188.208971 -0.0819596127,139.046921 1,85.928507 C1.81439092,45.9462805 11.1812978,10.5316196 18.69,5.92631514 C17.71,8.09631514 39.37,12.31 45.03,13.73 C49.22,14.79 53.48,15.58 57.67,16.65 C68.35,19.37 79.21,22.31 90.19,20.67 C114.66,17.01 137.91,8.58 161.33,0.97 C164.18,0.05 164.87,0.2 165.84,3 C167.98,9.19 170.62,15.21 173.06,21.29 C172.374617,14.8223818 180.352505,43.0196841 183.27,65.3426076 C186.187495,87.6655311 186.187495,111.487787 185.886505,118.839242 Z" id="Shape"></path>
        </g>
    </g>
</svg>