<?xml version="1.0" encoding="UTF-8"?>
<svg width="408px" height="612px" viewBox="0 0 408 612" version="1.1" xmlns="http://www.w3.org/2000/svg" xmlns:xlink="http://www.w3.org/1999/xlink">
    <!-- Generator: Sketch 59.1 (86144) - https://sketch.com -->
    <title>i-back</title>
    <desc>Created with Sketch.</desc>
    <g id="i-back" stroke="none" stroke-width="1" fill="none" fill-rule="evenodd">
        <g id="i-back-removebg-preview" transform="translate(74.000000, 0.000000)" stroke="#000000">
            <path d="M234.927033,0.0133005407 C236.579108,4.53548438 238.431032,8.99116552 239.043898,13.8059613 C239.257069,15.521731 240.016491,16.9049872 241.268871,18.128637 C243.906862,20.6956414 245.145919,24.0606782 245.012687,27.5853214 C244.839486,32.3336145 245.665523,36.7094924 247.290953,41.1784741 C250.275347,49.3849077 252.340441,57.9371554 254.685322,66.316496 C256.030965,71.1445923 256.643831,76.6776172 256.777063,81.9180303 C257.216728,99.301837 259.375085,116.59254 259.201884,134.042849 C259.015359,152.99612 255.751178,171.364167 250.91486,189.492804 C243.573783,216.985021 238.977283,244.956058 236.019535,273.179806 C233.461482,297.612899 234.061026,322.152397 234.607276,346.718495 C235.233466,374.662931 231.649529,402.314756 223.429121,429.221749 C217.66018,448.148419 215.4885,467.886421 210.465658,486.999298 C209.519711,490.603745 210.092609,494.593907 209.946053,498.397862 C209.772852,502.627434 208.520472,506.23188 204.217082,508.040754 C203.044641,508.532874 201.07281,509.1713 202.57833,510.714162 C207.228123,515.489056 204.843272,520.263951 202.87144,524.972342 C199.633905,532.726557 197.222408,540.600477 198.061769,549.126124 C198.781221,556.374919 199.48735,563.637014 200.486589,570.845907 C201.525798,578.280909 200.246772,580.821312 192.972311,582.789793 C189.96127,583.601125 190.147794,585.556305 190.067855,587.710993 C189.721452,596.037131 181.780832,600.452911 174.199937,596.582453 C171.801763,595.358803 171.655208,593.230717 171.681854,591.076029 C171.721824,586.061726 169.936517,583.308514 164.367424,582.590284 C157.026346,581.645946 154.015306,577.123762 155.507503,569.848366 C157.719152,559.154732 159.397874,548.314791 163.568032,538.099976 C164.68718,535.360064 165.846297,532.30094 165.673096,529.467925 C165.140168,520.795972 169.510175,513.959494 173.320607,506.896907 C175.145883,503.53187 176.864575,500.446145 173.706979,496.961403 C172.894265,496.070267 172.827649,494.793415 173.120759,493.636268 C178.196894,473.446047 176.09183,452.816909 176.984484,432.360677 C178.063662,407.688174 179.036255,383.015671 182.486961,358.502774 C183.579462,350.735259 182.646839,342.88794 181.35449,335.213528 C178.569943,318.694256 176.984484,302.028679 174.946036,285.416303 C172.947557,269.136441 171.108957,252.843279 169.523498,236.523516 C168.430996,225.31116 167.498373,214.072203 167.218586,202.819945 C166.898829,189.546006 165.659773,176.338569 165.033583,163.09123 C164.793766,158.130129 164.753796,153.142426 165.459925,148.181324 C165.753035,146.146341 166.339255,143.526135 163.354861,142.847807 C160.437083,142.18278 157.599243,142.475392 156.280248,145.813828 C153.548994,152.770011 150.617892,159.64639 148.246365,166.722278 C137.90757,197.566232 128.92774,228.835803 119.574862,259.985669 C113.619396,279.830076 106.7846,299.448374 99.443523,318.840562 C95.4065967,329.507596 90.1839066,339.775613 87.2128354,350.828362 C85.1077715,358.64908 83.4690192,366.642705 82.2166395,374.649631 C78.8858422,395.850693 72.957023,416.373427 67.108143,436.962664 C62.2718254,454.013957 57.9284657,471.211556 55.410383,488.794871 C54.850809,492.69193 52.945593,496.38948 53.8515699,500.525948 C54.0380945,501.350582 53.5984293,502.813641 52.9589162,503.239258 C47.2965608,507.016612 48.8020812,512.642741 49.494887,517.683646 C50.5740653,525.544265 49.494887,533.059071 48.082629,540.773384 C46.7236637,548.168485 44.352136,555.536985 45.8709796,563.331101 C46.9368347,568.784323 45.0849114,574.197643 44.6185998,579.637564 C44.4587215,581.49964 43.4061896,583.255311 41.8473765,584.21295 C38.8363357,586.075026 35.9318805,587.777495 35.5055385,591.82086 C35.3856297,593.004608 34.0266645,593.56323 32.7876079,593.629733 C27.8846743,593.935646 22.7552465,593.643034 18.8249057,590.889822 C13.988588,587.498184 8.40617181,585.489802 3.80967156,581.579443 C0.612106177,578.852832 -0.706889544,576.485336 0.891893149,572.707983 C2.51732222,568.890727 4.27598318,565.139975 5.90141225,561.32272 C12.6695923,545.362071 15.1610287,528.536887 15.6806331,511.39249 C15.7872186,507.748142 19.5710043,506.47129 19.7708521,504.037291 C19.9573768,501.842702 16.1336215,500.406243 16.6265795,496.668791 C19.4644188,475.148517 21.3163421,453.508537 23.4347291,431.895158 C25.4998234,410.773899 26.5523554,389.586138 28.923883,368.504781 C30.9756542,350.296341 35.332337,332.726327 42.7666765,315.768137 C49.8945827,299.528177 52.3593727,281.944862 53.7050148,264.388148 C55.2904743,243.705808 54.9840409,222.943663 54.850809,202.20812 C54.7841931,193.256857 53.8915394,184.345494 53.8249235,175.367629 C53.6783684,155.616326 56.0099265,136.250739 62.4716732,117.57678 C67.8942112,101.922044 70.065891,85.6687827 72.6905593,69.4687242 C72.957023,67.8327576 73.303426,66.1967911 73.8230303,64.6273273 C77.8732798,52.2578245 80.8310278,39.7154146 82.4697801,26.7207863 C83.6155743,17.6498175 87.3727137,8.89806174 89.9707355,0 C138.333912,0.0133005407 186.630473,0.0133005407 234.927033,0.0133005407 Z" id="Path"></path>
        </g>
    </g>
</svg>