<?xml version="1.0" encoding="UTF-8"?>
<svg width="408px" height="612px" viewBox="0 0 408 612" version="1.1" xmlns="http://www.w3.org/2000/svg" xmlns:xlink="http://www.w3.org/1999/xlink">
    <!-- Generator: Sketch 59.1 (86144) - https://sketch.com -->
    <title>i-front</title>
    <desc>Created with Sketch.</desc>
    <g id="i-front" stroke="none" stroke-width="1" fill="none" fill-rule="evenodd">
        <g id="i-front-removebg-preview" transform="translate(72.111111, 1.000000)" stroke="#000000">
            <path d="M177.679265,0 C180.275035,7.37617385 179.409778,15.4434487 182.311716,22.7930417 C184.188657,27.5510061 183.429894,33.1196851 184.61463,37.665003 C186.47826,44.81524 185.18703,52.7761916 190.312012,59.3549413 C193.347067,63.2490295 191.896098,68.9639029 192.535057,73.8414809 C193.253885,79.2373847 194.518491,84.6332884 194.931152,89.9494498 C195.39706,95.9700025 195.184073,101.565262 200.66847,105.472641 C208.961622,129.196011 218.439511,152.520669 224.163517,177.107915 C233.10894,215.557052 238.22061,254.72387 246.500452,293.292621 C247.95142,300.070726 246.700126,306.875413 246.300777,313.587067 C245.768311,322.199248 245.462143,330.798139 245.621883,339.423611 C246.007921,359.106698 242.453712,378.337912 239.298853,397.648868 C236.889446,412.348054 235.664775,427.193434 234.426793,442.065396 C233.215433,456.525355 231.857646,471.038475 230.180379,485.498434 C229.927458,487.66477 229.607978,489.777944 230.153756,491.904408 C230.939143,494.93462 230.526482,497.792057 229.088824,500.569751 C227.225195,504.17145 227.225195,507.959215 228.556359,511.680528 C233.588159,525.755065 237.395289,540.148572 239.884566,554.88763 C240.350473,557.652033 241.308911,560.336695 242.001117,563.061228 C243.199164,567.779321 245.888116,570.796242 250.800112,572.191735 C258.174761,574.304909 263.792274,578.318611 265.509476,586.611822 C266.654277,592.14063 265.363048,594.891744 259.505925,595.144261 C252.863416,595.42336 246.180972,595.343617 239.565086,594.865163 C233.787834,594.43987 227.970646,593.894963 222.299887,592.4596 C216.589193,591.010946 212.728817,587.900991 210.279475,582.345603 C206.938253,574.770073 202.998007,567.447061 199.071073,560.150629 C197.10095,556.482478 194.225635,553.478847 190.911036,550.847347 C188.315266,548.787334 187.37014,549.850567 187.250335,552.455486 C186.997414,557.745066 186.890921,563.061228 186.797739,568.350808 C186.677934,575.501045 182.231846,579.634361 174.897132,579.328681 C167.402677,579.009712 165.685476,577.202217 165.552359,569.746301 C165.299438,556.336284 165.259503,542.912976 162.996524,529.622573 C162.23776,525.156997 165.259503,522.339432 170.863704,522.445755 C173.845512,522.498917 175.203299,522.432465 174.910443,518.6447 C174.524406,513.541185 177.066929,509.035738 180.035425,504.929003 C181.925678,502.310794 183.40327,499.626133 182.67113,496.183918 C182.471456,495.26688 182.564637,494.044163 183.043856,493.28661 C187.117218,486.880636 186.491571,479.212073 188.75455,472.314354 C190.351947,467.463356 189.673054,461.98771 189.193835,457.123423 C188.075657,445.799999 188.874355,434.596189 189.539937,423.392379 C190.072403,414.52768 186.997414,406.420534 185.639626,397.954547 C182.790935,380.145407 184.627942,362.322976 188.701304,345.125194 C192.601615,328.671674 190.218831,314.02565 184.068853,298.768267 C174.857197,275.935354 163.355938,254.285287 152.493639,232.263089 C140.087189,207.130936 128.359633,181.666523 116.299285,156.361595 C114.582084,152.773186 112.69183,149.26452 110.841512,145.742563 C109.976256,144.107843 108.924636,142.526285 107.127564,141.861765 C104.851274,141.011179 102.38862,138.937876 100.138952,140.293498 C97.92922,141.622538 99.8061614,144.267328 99.9525895,146.30076 C101.57661,170.303228 100.831158,194.305697 100.485055,218.334746 C100.298692,231.040372 99.3269423,243.706126 99.4999937,256.451623 C99.7262916,272.984884 98.8077883,289.65105 95.6396176,305.918504 C91.8191765,325.455397 94.1087789,344.447383 98.7279185,363.386208 C102.042517,376.95571 103.227253,390.844181 104.704846,404.63962 C106.701592,423.232894 107.447044,441.945782 109.20418,460.565637 C109.816516,467.117806 111.773327,473.550361 113.210985,480.022788 C113.690204,482.162543 114.06293,484.209265 113.01131,486.309148 C110.122684,492.130345 110.122684,495.785206 114.688577,499.798908 C119.773624,504.264483 121.876863,509.527483 121.836928,515.973329 C121.823617,518.033341 122.835301,519.362381 124.565815,520.359162 C126.802171,521.648331 127.507688,523.801376 127.787232,526.22023 C129.983653,544.933118 129.025215,563.858652 131.634296,582.544959 C132.299879,587.276343 129.078461,590.253393 125.524253,592.645665 C114.901563,599.769322 97.03734,597.908665 87.9454888,588.84461 C85.8023145,586.704855 84.7107599,584.325873 85.3097838,581.229209 C87.4662697,570.171593 87.865619,558.86146 90.2883377,547.817135 C91.8324881,540.773221 90.5146356,533.622984 88.8639921,526.645523 C87.30653,520.040192 84.9636811,513.634218 84.298099,506.816241 C84.0052429,503.852481 83.2731026,501.061496 85.4961468,498.323673 C87.2266602,496.210499 85.003616,495.732044 83.5792704,495.785206 C77.7887063,495.984562 76.6971517,492.63538 76.8169565,487.784383 C77.056566,477.909613 72.1711935,469.23098 69.8815912,459.940988 C63.0660307,432.257078 54.1206076,405.118074 48.4897832,377.141775 C45.3482358,361.538842 43.8573319,345.709972 43.817397,329.721616 C43.7774621,312.457382 40.8622126,295.419085 38.3330007,278.380788 C33.0615906,242.961863 21.5736439,209.164368 10.7912143,175.194097 C1.53962338,146.048242 -1.08277,116.277739 2.3116986,85.8161343 C3.24351351,77.4431802 4.17532842,69.0702261 5.59967406,60.7770144 C6.54480061,55.2880779 8.86102625,50.0383686 10.1389438,44.5893032 C12.2022483,35.751185 15.6233402,27.2453268 16.3155455,18.0616581 C16.5551551,14.7656381 17.9528774,11.6556837 20.681764,9.36973435 C23.5837018,6.95088094 23.8632463,3.29602003 24.9548009,0.03987121 C75.8452066,0 126.762236,0 177.679265,0 Z" id="Path"></path>
        </g>
    </g>
</svg>