<?xml version="1.0" encoding="utf-8"?>
<svg width="40px" height="40px" viewBox="0 0 40 40" version="1.1" xmlns:xlink="http://www.w3.org/1999/xlink" xmlns="http://www.w3.org/2000/svg">
  <desc>Created with Lunacy</desc>
  <g id="shopping-bag">
    <path d="M0 0L40 0L40 40L0 40L0 0Z" id="Rectangle-2-Copy-2" fill="none" stroke="none" />
    <path d="M16.0041 17.2883L14.8589 4.39264C14.8344 4.10634 14.593 3.88957 14.3108 3.88957L11.955 3.88957C11.9223 1.73824 10.1636 0 8.00409 0C5.84458 0 4.08589 1.73824 4.05317 3.88957L1.69734 3.88957C1.41104 3.88957 1.17382 4.10634 1.14928 4.39264L0.00408998 17.2883C0.00408998 17.3047 0 17.3211 0 17.3374C0 18.8057 1.3456 20 3.00205 20L13.0061 20C14.6626 20 16.0082 18.8057 16.0082 17.3374C16.0082 17.3211 16.0082 17.3047 16.0041 17.2883ZM8.0041 1.10429C9.5542 1.10429 10.818 2.34765 10.8507 3.88957L5.15747 3.88957C5.19019 2.34765 6.45399 1.10429 8.0041 1.10429ZM3.002 18.8957L13.0061 18.8957C14.0409 18.8957 14.8875 18.2086 14.9038 17.362L13.8036 4.99796L11.955 4.99796L11.955 6.67485C11.955 6.9816 11.7096 7.22699 11.4028 7.22699C11.0961 7.22699 10.8507 6.9816 10.8507 6.67485L10.8507 4.99796L5.15333 4.99796L5.15333 6.67485C5.15333 6.9816 4.90793 7.22699 4.60118 7.22699C4.29443 7.22699 4.04903 6.9816 4.04903 6.67485L4.04903 4.99796L2.20036 4.99796L1.10425 17.362C1.12061 18.2086 1.96314 18.8957 3.002 18.8957Z" transform="translate(12.03271 10)" id="Shape" fill="#33333A" fill-rule="evenodd" stroke="none" />
  </g>
</svg>